<svg xmlns="http://www.w3.org/2000/svg" xmlns:xlink="http://www.w3.org/1999/xlink" width="26" height="26"><g transform="translate(-5)"><path d="M14.5 0c-2 0-3.5 1.6-3.5 3.5v3.4c0 .6-.3 1.1-.8 1.3A3.7 3.7 0 0 0 8 11.5v3.4c0 .6-.3 1.1-.7 1.3A3.6 3.6 0 0 0 5 19.5v3c0 2 1.6 3.5 3.5 3.5h19c2 0 3.5-1.6 3.5-3.5v-3c0-2-1.6-3.5-3.5-3.5-.8 0-1.5-.7-1.5-1.5v-3c0-2-1.6-3.5-3.5-3.5-.8 0-1.5-.7-1.5-1.5v-3c0-2-1.6-3.5-3.5-3.5Z" overflow="visible" paint-order="stroke markers fill"/><path id="a" fill="#fff" d="M17.5 8h-3c-.8 0-1.5-.7-1.5-1.5v-3c0-.8.7-1.5 1.5-1.5h3c.8 0 1.5.7 1.5 1.5v3c0 .8-.7 1.5-1.5 1.5z" baseline-shift="baseline" display="inline" overflow="visible" paint-order="stroke markers fill" stop-color="#000" vector-effect="none"/><use xlink:href="#a" transform="translate(10 16)"/><use xlink:href="#a" transform="translate(2 16)"/><use xlink:href="#a" transform="translate(-6 16)"/><use xlink:href="#a" transform="translate(-3 8)"/><use xlink:href="#a" transform="translate(5 8)"/></g></svg>
