<?xml version="1.0" encoding="UTF-8" standalone="no"?>
<!DOCTYPE svg PUBLIC "-//W3C//DTD SVG 1.1//EN"
 "http://www.w3.org/Graphics/SVG/1.1/DTD/svg11.dtd">
<!-- Generated by graphviz version 9.0.0 (20230911.1827)
 -->
<!-- Pages: 1 -->
<svg width="283pt" height="279pt"
 viewBox="0.00 0.00 283.48 279.40" xmlns="http://www.w3.org/2000/svg" xmlns:xlink="http://www.w3.org/1999/xlink">
<g id="graph0" class="graph" transform="scale(1 1) rotate(0) translate(4 275.4)">
<!-- 0 -->
<g id="node1" class="node">
<title>0</title>
<polygon fill="#d9d9d9" stroke="black" stroke-width="0" points="81.81,-78.81 19.31,-78.81 19.31,-42.81 81.81,-42.81 81.81,-78.81"/>
<text text-anchor="middle" x="50.56" y="-57.26" font-family="IBM Plex Sans" font-size="14.00">plan.py</text>
</g>
<!-- 1 -->
<g id="node2" class="node">
<title>1</title>
<ellipse fill="#80b1d3" stroke="black" stroke-width="0" cx="50.56" cy="-177.07" rx="50.56" ry="19.45"/>
<text text-anchor="middle" x="50.56" y="-173.52" font-family="IBM Plex Sans" font-size="14.00">./plan.py</text>
</g>
<!-- 0&#45;&gt;1 -->
<g id="edge1" class="edge">
<title>0&#45;&gt;1</title>
<path fill="none" stroke="dimgray" d="M50.56,-78.67C50.56,-96.4 50.56,-124.64 50.56,-146.16"/>
<polygon fill="dimgray" stroke="dimgray" points="47.06,-146.11 50.56,-156.11 54.06,-146.11 47.06,-146.11"/>
</g>
<!-- 2 -->
<g id="node3" class="node">
<title>2</title>
<ellipse fill="#80b1d3" stroke="black" stroke-width="0" cx="183.56" cy="-60.81" rx="83.97" ry="60.81"/>
<text text-anchor="middle" x="183.56" y="-86.51" font-family="IBM Plex Sans" font-size="14.00">echo First line. &gt;</text>
<text text-anchor="middle" x="183.56" y="-67.01" font-family="IBM Plex Sans" font-size="14.00">story.txt; echo</text>
<text text-anchor="middle" x="183.56" y="-47.51" font-family="IBM Plex Sans" font-size="14.00">Second line. &gt;&gt;</text>
<text text-anchor="middle" x="183.56" y="-28.01" font-family="IBM Plex Sans" font-size="14.00">story.txt</text>
</g>
<!-- 3 -->
<g id="node4" class="node">
<title>3</title>
<polygon fill="#d9d9d9" stroke="black" stroke-width="0" points="217.06,-195.07 150.06,-195.07 150.06,-159.07 217.06,-159.07 217.06,-195.07"/>
<text text-anchor="middle" x="183.56" y="-173.52" font-family="IBM Plex Sans" font-size="14.00">story.txt</text>
</g>
<!-- 2&#45;&gt;3 -->
<g id="edge2" class="edge">
<title>2&#45;&gt;3</title>
<path fill="none" stroke="dimgray" d="M183.56,-121.62C183.56,-130.8 183.56,-139.88 183.56,-147.93"/>
<polygon fill="dimgray" stroke="dimgray" points="180.06,-147.7 183.56,-157.7 187.06,-147.7 180.06,-147.7"/>
</g>
<!-- 4 -->
<g id="node5" class="node">
<title>4</title>
<ellipse fill="#80b1d3" stroke="black" stroke-width="0" cx="183.56" cy="-251.96" rx="91.92" ry="19.45"/>
<text text-anchor="middle" x="183.56" y="-248.41" font-family="IBM Plex Sans" font-size="14.00">grep First story.txt</text>
</g>
<!-- 3&#45;&gt;4 -->
<g id="edge3" class="edge">
<title>3&#45;&gt;4</title>
<path fill="none" stroke="dimgray" d="M183.56,-194.97C183.56,-202.81 183.56,-212.36 183.56,-221.33"/>
<polygon fill="dimgray" stroke="dimgray" points="180.06,-221.1 183.56,-231.1 187.06,-221.1 180.06,-221.1"/>
</g>
</g>
</svg>
