<?xml version="1.0" encoding="UTF-8" standalone="no"?>
<!DOCTYPE svg PUBLIC "-//W3C//DTD SVG 1.1//EN"
 "http://www.w3.org/Graphics/SVG/1.1/DTD/svg11.dtd">
<!-- Generated by graphviz version 12.2.1 (20241206.2353)
 -->
<!-- Pages: 1 -->
<svg width="379pt" height="125pt"
 viewBox="0.00 0.00 379.00 124.99" xmlns="http://www.w3.org/2000/svg" xmlns:xlink="http://www.w3.org/1999/xlink">
<g id="graph0" class="graph" transform="scale(1 1) rotate(0) translate(4 120.99)">
<!-- 5 -->
<g id="node1" class="node">
<title>5</title>
<polygon fill="#b3de69" stroke="black" stroke-width="0" points="64.67,-12.33 64.67,-29.77 45.73,-42.1 18.94,-42.1 0,-29.77 0,-12.33 18.94,0 45.73,0 64.67,-12.33"/>
<text text-anchor="middle" x="32.34" y="-17.5" font-family="IBM Plex Sans" font-size="14.00">*.txt</text>
</g>
<!-- 7 -->
<g id="node2" class="node">
<title>7</title>
<polygon fill="#d9d9d9" stroke="black" stroke-width="0" points="139.59,-39.05 83.09,-39.05 83.09,-3.05 139.59,-3.05 139.59,-39.05"/>
<text text-anchor="middle" x="111.34" y="-17.5" font-family="IBM Plex Sans" font-size="14.00">foo.txt</text>
</g>
<!-- 6 -->
<g id="node5" class="node">
<title>6</title>
<ellipse fill="#80b1d3" stroke="black" stroke-width="0" cx="111.34" cy="-97.54" rx="83.97" ry="19.45"/>
<text text-anchor="middle" x="111.34" y="-93.99" font-family="IBM Plex Sans" font-size="14.00">runsh cat foo.txt</text>
</g>
<!-- 7&#45;&gt;6 -->
<g id="edge2" class="edge">
<title>7&#45;&gt;6</title>
<path fill="none" stroke="dimgray" d="M111.34,-38.95C111.34,-47.16 111.34,-57.27 111.34,-66.72"/>
<polygon fill="dimgray" stroke="dimgray" points="107.84,-66.62 111.34,-76.63 114.84,-66.63 107.84,-66.62"/>
</g>
<!-- 3 -->
<g id="node3" class="node">
<title>3</title>
<polygon fill="#d9d9d9" stroke="black" stroke-width="0" points="323.59,-39.05 261.09,-39.05 261.09,-3.05 323.59,-3.05 323.59,-39.05"/>
<text text-anchor="middle" x="292.34" y="-17.5" font-family="IBM Plex Sans" font-size="14.00">plan.py</text>
</g>
<!-- 4 -->
<g id="node4" class="node">
<title>4</title>
<ellipse fill="#80b1d3" stroke="black" stroke-width="0" cx="292.34" cy="-97.54" rx="78.67" ry="19.45"/>
<text text-anchor="middle" x="292.34" y="-93.99" font-family="IBM Plex Sans" font-size="14.00">runpy ./plan.py</text>
</g>
<!-- 3&#45;&gt;4 -->
<g id="edge1" class="edge">
<title>3&#45;&gt;4</title>
<path fill="none" stroke="dimgray" d="M292.34,-38.95C292.34,-47.16 292.34,-57.27 292.34,-66.72"/>
<polygon fill="dimgray" stroke="dimgray" points="288.84,-66.62 292.34,-76.63 295.84,-66.63 288.84,-66.62"/>
</g>
</g>
</svg>
