<?xml version="1.0" encoding="UTF-8" standalone="no"?>
<!DOCTYPE svg PUBLIC "-//W3C//DTD SVG 1.1//EN"
 "http://www.w3.org/Graphics/SVG/1.1/DTD/svg11.dtd">
<!-- Generated by graphviz version 9.0.0 (20230911.1827)
 -->
<!-- Pages: 1 -->
<svg width="238pt" height="119pt"
 viewBox="0.00 0.00 238.42 118.89" xmlns="http://www.w3.org/2000/svg" xmlns:xlink="http://www.w3.org/1999/xlink">
<g id="graph0" class="graph" transform="scale(1 1) rotate(0) translate(4 114.89)">
<!-- 0 -->
<g id="node1" class="node">
<title>0</title>
<polygon fill="#d9d9d9" stroke="black" stroke-width="0" points="81.81,-36 19.31,-36 19.31,0 81.81,0 81.81,-36"/>
<text text-anchor="middle" x="50.56" y="-14.45" font-family="IBM Plex Sans" font-size="14.00">plan.py</text>
</g>
<!-- 1 -->
<g id="node2" class="node">
<title>1</title>
<ellipse fill="#80b1d3" stroke="black" stroke-width="0" cx="50.56" cy="-91.45" rx="50.56" ry="19.45"/>
<text text-anchor="middle" x="50.56" y="-87.9" font-family="IBM Plex Sans" font-size="14.00">./plan.py</text>
</g>
<!-- 0&#45;&gt;1 -->
<g id="edge1" class="edge">
<title>0&#45;&gt;1</title>
<path fill="none" stroke="dimgray" d="M50.56,-35.93C50.56,-43.34 50.56,-52.25 50.56,-60.7"/>
<polygon fill="dimgray" stroke="dimgray" points="47.06,-60.62 50.56,-70.62 54.06,-60.62 47.06,-60.62"/>
</g>
<!-- 2 -->
<g id="node3" class="node">
<title>2</title>
<ellipse fill="#80b1d3" stroke="black" stroke-width="0" cx="174.56" cy="-91.45" rx="55.86" ry="19.45"/>
<text text-anchor="middle" x="174.56" y="-87.9" font-family="IBM Plex Sans" font-size="14.00">cat foo.txt</text>
</g>
<!-- 3 -->
<g id="node4" class="node">
<title>3</title>
<polygon fill="#d9d9d9" stroke="black" stroke-width="0" points="202.81,-36 146.31,-36 146.31,0 202.81,0 202.81,-36"/>
<text text-anchor="middle" x="174.56" y="-14.45" font-family="IBM Plex Sans" font-size="14.00">foo.txt</text>
</g>
<!-- 3&#45;&gt;2 -->
<g id="edge2" class="edge">
<title>3&#45;&gt;2</title>
<path fill="none" stroke="dimgray" d="M174.56,-35.93C174.56,-43.34 174.56,-52.25 174.56,-60.7"/>
<polygon fill="dimgray" stroke="dimgray" points="171.06,-60.62 174.56,-70.62 178.06,-60.62 171.06,-60.62"/>
</g>
</g>
</svg>
