<?xml version="1.0" encoding="UTF-8" standalone="no"?>
<!DOCTYPE svg PUBLIC "-//W3C//DTD SVG 1.1//EN"
 "http://www.w3.org/Graphics/SVG/1.1/DTD/svg11.dtd">
<!-- Generated by graphviz version 12.2.1 (20241206.2353)
 -->
<!-- Pages: 1 -->
<svg width="390pt" height="278pt"
 viewBox="0.00 0.00 389.97 277.89" xmlns="http://www.w3.org/2000/svg" xmlns:xlink="http://www.w3.org/1999/xlink">
<g id="graph0" class="graph" transform="scale(1 1) rotate(0) translate(4 273.89)">
<!-- 5 -->
<g id="node1" class="node">
<title>5</title>
<polygon fill="#b3de69" stroke="black" stroke-width="0" points="196.34,-168.13 196.34,-185.56 177.39,-197.89 150.61,-197.89 131.66,-185.56 131.66,-168.13 150.61,-155.8 177.39,-155.8 196.34,-168.13"/>
<text text-anchor="middle" x="164" y="-173.3" font-family="IBM Plex Sans" font-size="14.00">*.txt</text>
</g>
<!-- 7 -->
<g id="node3" class="node">
<title>7</title>
<polygon fill="#d9d9d9" stroke="black" stroke-width="0" points="192.25,-269.89 135.75,-269.89 135.75,-233.89 192.25,-233.89 192.25,-269.89"/>
<text text-anchor="middle" x="164" y="-248.34" font-family="IBM Plex Sans" font-size="14.00">foo.txt</text>
</g>
<!-- 5&#45;&gt;7 -->
<g id="edge7" class="edge">
<title>5&#45;&gt;7</title>
<path fill="none" stroke="dimgray" d="M164,-197.81C164,-205.41 164,-214.23 164,-222.48"/>
<polygon fill="none" stroke="dimgray" points="160.5,-222.41 164,-232.41 167.5,-222.41 160.5,-222.41"/>
</g>
<!-- 2 -->
<g id="node2" class="node">
<title>2</title>
<polygon fill="#d9d9d9" stroke="black" stroke-width="0" points="54,-118.35 0,-118.35 0,-82.35 54,-82.35 54,-118.35"/>
<text text-anchor="middle" x="27" y="-96.8" font-family="IBM Plex Sans" font-size="14.00">./</text>
</g>
<!-- 3 -->
<g id="node4" class="node">
<title>3</title>
<polygon fill="#d9d9d9" stroke="black" stroke-width="0" points="134.25,-118.35 71.75,-118.35 71.75,-82.35 134.25,-82.35 134.25,-118.35"/>
<text text-anchor="middle" x="103" y="-96.8" font-family="IBM Plex Sans" font-size="14.00">plan.py</text>
</g>
<!-- 1 -->
<g id="node5" class="node">
<title>1</title>
<polygon fill="#fdb462" stroke="black" stroke-width="0" points="136.88,-22.45 119.94,-44.91 86.06,-44.91 69.12,-22.45 86.06,0 119.94,0 136.88,-22.45"/>
<text text-anchor="middle" x="103" y="-18.9" font-family="IBM Plex Sans" font-size="14.00">root</text>
</g>
<!-- 1&#45;&gt;2 -->
<g id="edge2" class="edge">
<title>1&#45;&gt;2</title>
<path fill="none" stroke="dimgray" d="M84.21,-42.22C74.5,-51.91 62.52,-63.88 52.03,-74.35"/>
<polygon fill="none" stroke="dimgray" points="49.69,-71.75 45.09,-81.29 54.63,-76.7 49.69,-71.75"/>
</g>
<!-- 1&#45;&gt;3 -->
<g id="edge3" class="edge">
<title>1&#45;&gt;3</title>
<path fill="none" stroke="dimgray" d="M103,-44.6C103,-52.8 103,-62.31 103,-71.09"/>
<polygon fill="none" stroke="dimgray" points="99.5,-70.89 103,-80.89 106.5,-70.89 99.5,-70.89"/>
</g>
<!-- 1&#45;&gt;1 -->
<g id="edge1" class="edge">
<title>1&#45;&gt;1</title>
<path fill="none" stroke="dimgray" d="M126.48,-8.88C141.03,-5.6 154.88,-10.13 154.88,-22.45 154.88,-31.5 147.41,-36.35 137.68,-36.99"/>
<polygon fill="none" stroke="dimgray" points="138.25,-33.52 127.99,-36.16 137.65,-40.5 138.25,-33.52"/>
</g>
<!-- 4 -->
<g id="node6" class="node">
<title>4</title>
<ellipse fill="#80b1d3" stroke="black" stroke-width="0" cx="231" cy="-100.35" rx="78.67" ry="19.45"/>
<text text-anchor="middle" x="231" y="-96.8" font-family="IBM Plex Sans" font-size="14.00">runpy ./plan.py</text>
</g>
<!-- 1&#45;&gt;4 -->
<g id="edge4" class="edge">
<title>1&#45;&gt;4</title>
<path fill="none" stroke="dimgray" d="M125.88,-37.02C144.47,-48.04 171.07,-63.82 192.86,-76.74"/>
<polygon fill="none" stroke="dimgray" points="190.8,-79.59 201.19,-81.68 194.37,-73.56 190.8,-79.59"/>
</g>
<!-- 4&#45;&gt;5 -->
<g id="edge5" class="edge">
<title>4&#45;&gt;5</title>
<path fill="none" stroke="dimgray" d="M215.12,-119.01C206.98,-128.06 196.9,-139.27 187.85,-149.33"/>
<polygon fill="none" stroke="dimgray" points="185.33,-146.9 181.24,-156.68 190.53,-151.58 185.33,-146.9"/>
</g>
<!-- 6 -->
<g id="node7" class="node">
<title>6</title>
<ellipse fill="#80b1d3" stroke="black" stroke-width="0" cx="298" cy="-176.85" rx="83.97" ry="19.45"/>
<text text-anchor="middle" x="298" y="-173.3" font-family="IBM Plex Sans" font-size="14.00">runsh cat foo.txt</text>
</g>
<!-- 4&#45;&gt;6 -->
<g id="edge6" class="edge">
<title>4&#45;&gt;6</title>
<path fill="none" stroke="dimgray" d="M246.88,-119.01C255.02,-128.06 265.1,-139.27 274.15,-149.33"/>
<polygon fill="none" stroke="dimgray" points="271.47,-151.58 280.76,-156.68 276.67,-146.9 271.47,-151.58"/>
</g>
</g>
</svg>
