<?xml version="1.0" encoding="UTF-8" standalone="no"?>
<!DOCTYPE svg PUBLIC "-//W3C//DTD SVG 1.1//EN"
 "http://www.w3.org/Graphics/SVG/1.1/DTD/svg11.dtd">
<!-- Generated by graphviz version 9.0.0 (20230911.1827)
 -->
<!-- Pages: 1 -->
<svg width="430pt" height="284pt"
 viewBox="0.00 0.00 429.56 283.91" xmlns="http://www.w3.org/2000/svg" xmlns:xlink="http://www.w3.org/1999/xlink">
<g id="graph0" class="graph" transform="scale(1 1) rotate(0) translate(4 279.91)">
<!-- 0 -->
<g id="node1" class="node">
<title>0</title>
<polygon fill="#fdb462" stroke="black" stroke-width="0" points="223.37,-22.45 206.42,-44.91 172.54,-44.91 155.6,-22.45 172.54,0 206.42,0 223.37,-22.45"/>
<text text-anchor="middle" x="189.48" y="-18.9" font-family="IBM Plex Sans" font-size="14.00">root</text>
</g>
<!-- 1 -->
<g id="node2" class="node">
<title>1</title>
<polygon fill="#fdb462" stroke="black" stroke-width="0" points="106.96,-103.36 80.22,-125.81 26.74,-125.81 0,-103.36 26.74,-80.91 80.22,-80.91 106.96,-103.36"/>
<text text-anchor="middle" x="53.48" y="-99.81" font-family="IBM Plex Sans" font-size="14.00">vacuum</text>
</g>
<!-- 0&#45;&gt;1 -->
<g id="edge1" class="edge">
<title>0&#45;&gt;1</title>
<path fill="none" stroke="dimgray" d="M166.72,-36.66C146.93,-48.14 117.8,-65.04 94.04,-78.83"/>
<polygon fill="none" stroke="dimgray" points="92.43,-75.72 85.54,-83.76 95.94,-81.77 92.43,-75.72"/>
</g>
<!-- 2 -->
<g id="node3" class="node">
<title>2</title>
<polygon fill="#d9d9d9" stroke="black" stroke-width="0" points="178.48,-121.36 124.48,-121.36 124.48,-85.36 178.48,-85.36 178.48,-121.36"/>
<text text-anchor="middle" x="151.48" y="-99.81" font-family="IBM Plex Sans" font-size="14.00">./</text>
</g>
<!-- 0&#45;&gt;2 -->
<g id="edge2" class="edge">
<title>0&#45;&gt;2</title>
<path fill="none" stroke="dimgray" d="M179.3,-44.6C174.78,-53.99 169.4,-65.15 164.59,-75.15"/>
<polygon fill="none" stroke="dimgray" points="161.49,-73.51 160.3,-84.04 167.8,-76.55 161.49,-73.51"/>
</g>
<!-- 3 -->
<g id="node4" class="node">
<title>3</title>
<polygon fill="#d9d9d9" stroke="black" stroke-width="0" points="258.73,-121.36 196.23,-121.36 196.23,-85.36 258.73,-85.36 258.73,-121.36"/>
<text text-anchor="middle" x="227.48" y="-99.81" font-family="IBM Plex Sans" font-size="14.00">plan.py</text>
</g>
<!-- 0&#45;&gt;3 -->
<g id="edge3" class="edge">
<title>0&#45;&gt;3</title>
<path fill="none" stroke="dimgray" d="M199.66,-44.6C204.18,-53.99 209.56,-65.15 214.38,-75.15"/>
<polygon fill="none" stroke="dimgray" points="211.16,-76.55 218.66,-84.04 217.47,-73.51 211.16,-76.55"/>
</g>
<!-- 4 -->
<g id="node5" class="node">
<title>4</title>
<ellipse fill="#80b1d3" stroke="black" stroke-width="0" cx="327.48" cy="-103.36" rx="50.56" ry="19.45"/>
<text text-anchor="middle" x="327.48" y="-99.81" font-family="IBM Plex Sans" font-size="14.00">./plan.py</text>
</g>
<!-- 0&#45;&gt;4 -->
<g id="edge4" class="edge">
<title>0&#45;&gt;4</title>
<path fill="none" stroke="dimgray" d="M212.58,-36.66C233.89,-48.85 265.89,-67.14 290.71,-81.34"/>
<polygon fill="none" stroke="dimgray" points="288.78,-84.27 299.2,-86.19 292.26,-78.19 288.78,-84.27"/>
</g>
<!-- 5 -->
<g id="node6" class="node">
<title>5</title>
<ellipse fill="#80b1d3" stroke="black" stroke-width="0" cx="271.48" cy="-182.86" rx="55.86" ry="19.45"/>
<text text-anchor="middle" x="271.48" y="-179.31" font-family="IBM Plex Sans" font-size="14.00">cat foo.txt</text>
</g>
<!-- 4&#45;&gt;5 -->
<g id="edge5" class="edge">
<title>4&#45;&gt;5</title>
<path fill="none" stroke="dimgray" d="M314.77,-121.95C307.73,-131.69 298.84,-144 290.94,-154.93"/>
<polygon fill="none" stroke="dimgray" points="288.24,-152.7 285.22,-162.85 293.91,-156.79 288.24,-152.7"/>
</g>
<!-- 6 -->
<g id="node7" class="node">
<title>6</title>
<polygon fill="#b3de69" stroke="black" stroke-width="0" points="421.56,-174.14 421.56,-191.58 399.25,-203.91 367.71,-203.91 345.4,-191.58 345.4,-174.14 367.71,-161.81 399.25,-161.81 421.56,-174.14"/>
<text text-anchor="middle" x="383.48" y="-179.31" font-family="IBM Plex Sans" font-size="14.00">&#39;*.txt&#39;</text>
</g>
<!-- 4&#45;&gt;6 -->
<g id="edge6" class="edge">
<title>4&#45;&gt;6</title>
<path fill="none" stroke="dimgray" d="M340.19,-121.95C346.76,-131.04 354.95,-142.38 362.44,-152.74"/>
<polygon fill="none" stroke="dimgray" points="359.47,-154.6 368.16,-160.66 365.14,-150.5 359.47,-154.6"/>
</g>
<!-- 7 -->
<g id="node8" class="node">
<title>7</title>
<polygon fill="#d9d9d9" stroke="black" stroke-width="0" points="411.73,-275.91 355.23,-275.91 355.23,-239.91 411.73,-239.91 411.73,-275.91"/>
<text text-anchor="middle" x="383.48" y="-254.36" font-family="IBM Plex Sans" font-size="14.00">foo.txt</text>
</g>
<!-- 6&#45;&gt;7 -->
<g id="edge7" class="edge">
<title>6&#45;&gt;7</title>
<path fill="none" stroke="dimgray" d="M383.48,-203.82C383.48,-211.43 383.48,-220.25 383.48,-228.49"/>
<polygon fill="none" stroke="dimgray" points="379.98,-228.43 383.48,-238.43 386.98,-228.43 379.98,-228.43"/>
</g>
</g>
</svg>
