<?xml version="1.0" encoding="UTF-8" standalone="no"?>
<!DOCTYPE svg PUBLIC "-//W3C//DTD SVG 1.1//EN"
 "http://www.w3.org/Graphics/SVG/1.1/DTD/svg11.dtd">
<!-- Generated by graphviz version 9.0.0 (20230911.1827)
 -->
<!-- Pages: 1 -->
<svg width="431pt" height="284pt"
 viewBox="0.00 0.00 430.56 283.91" xmlns="http://www.w3.org/2000/svg" xmlns:xlink="http://www.w3.org/1999/xlink">
<g id="graph0" class="graph" transform="scale(1 1) rotate(0) translate(4 279.91)">
<!-- 0 -->
<g id="node1" class="node">
<title>0</title>
<polygon fill="#fdb462" stroke="black" stroke-width="0" points="261.96,-22.45 245.02,-44.91 211.13,-44.91 194.19,-22.45 211.13,0 245.02,0 261.96,-22.45"/>
<text text-anchor="middle" x="228.08" y="-18.9" font-family="IBM Plex Sans" font-size="14.00">root</text>
</g>
<!-- 1 -->
<g id="node2" class="node">
<title>1</title>
<ellipse fill="#80b1d3" stroke="black" stroke-width="0" cx="94.08" cy="-103.36" rx="50.56" ry="19.45"/>
<text text-anchor="middle" x="94.08" y="-99.81" font-family="IBM Plex Sans" font-size="14.00">./plan.py</text>
</g>
<!-- 0&#45;&gt;1 -->
<g id="edge1" class="edge">
<title>0&#45;&gt;1</title>
<path fill="none" stroke="dimgray" d="M205.35,-36.84C184.7,-49 153.9,-67.13 129.94,-81.24"/>
<polygon fill="none" stroke="dimgray" points="128.28,-78.16 121.44,-86.25 131.83,-84.19 128.28,-78.16"/>
</g>
<!-- 2 -->
<g id="node3" class="node">
<title>2</title>
<polygon fill="#d9d9d9" stroke="black" stroke-width="0" points="217.08,-121.36 163.08,-121.36 163.08,-85.36 217.08,-85.36 217.08,-121.36"/>
<text text-anchor="middle" x="190.08" y="-99.81" font-family="IBM Plex Sans" font-size="14.00">./</text>
</g>
<!-- 0&#45;&gt;2 -->
<g id="edge2" class="edge">
<title>0&#45;&gt;2</title>
<path fill="none" stroke="dimgray" d="M217.89,-44.6C213.37,-53.99 208,-65.15 203.18,-75.15"/>
<polygon fill="none" stroke="dimgray" points="200.09,-73.51 198.9,-84.04 206.39,-76.55 200.09,-73.51"/>
</g>
<!-- 3 -->
<g id="node4" class="node">
<title>3</title>
<polygon fill="#d9d9d9" stroke="black" stroke-width="0" points="297.33,-121.36 234.83,-121.36 234.83,-85.36 297.33,-85.36 297.33,-121.36"/>
<text text-anchor="middle" x="266.08" y="-99.81" font-family="IBM Plex Sans" font-size="14.00">plan.py</text>
</g>
<!-- 0&#45;&gt;3 -->
<g id="edge3" class="edge">
<title>0&#45;&gt;3</title>
<path fill="none" stroke="dimgray" d="M238.26,-44.6C242.78,-53.99 248.16,-65.15 252.97,-75.15"/>
<polygon fill="none" stroke="dimgray" points="249.76,-76.55 257.25,-84.04 256.07,-73.51 249.76,-76.55"/>
</g>
<!-- 4 -->
<g id="node5" class="node">
<title>4</title>
<polygon fill="#fdb462" stroke="black" stroke-width="0" points="422.56,-103.36 395.82,-125.81 342.34,-125.81 315.6,-103.36 342.34,-80.91 395.82,-80.91 422.56,-103.36"/>
<text text-anchor="middle" x="369.08" y="-99.81" font-family="IBM Plex Sans" font-size="14.00">vacuum</text>
</g>
<!-- 0&#45;&gt;4 -->
<g id="edge4" class="edge">
<title>0&#45;&gt;4</title>
<path fill="none" stroke="dimgray" d="M251.36,-36.48C272.12,-48.1 302.99,-65.38 327.91,-79.33"/>
<polygon fill="none" stroke="dimgray" points="326.08,-82.31 336.51,-84.14 329.5,-76.2 326.08,-82.31"/>
</g>
<!-- 5 -->
<g id="node6" class="node">
<title>5</title>
<polygon fill="#b3de69" stroke="black" stroke-width="0" points="76.15,-174.14 76.15,-191.58 53.85,-203.91 22.3,-203.91 0,-191.58 0,-174.14 22.3,-161.81 53.85,-161.81 76.15,-174.14"/>
<text text-anchor="middle" x="38.08" y="-179.31" font-family="IBM Plex Sans" font-size="14.00">&#39;*.txt&#39;</text>
</g>
<!-- 1&#45;&gt;5 -->
<g id="edge5" class="edge">
<title>1&#45;&gt;5</title>
<path fill="none" stroke="dimgray" d="M81.37,-121.95C74.8,-131.04 66.6,-142.38 59.12,-152.74"/>
<polygon fill="none" stroke="dimgray" points="56.42,-150.5 53.4,-160.66 62.09,-154.6 56.42,-150.5"/>
</g>
<!-- 6 -->
<g id="node7" class="node">
<title>6</title>
<ellipse fill="#80b1d3" stroke="black" stroke-width="0" cx="150.08" cy="-182.86" rx="55.86" ry="19.45"/>
<text text-anchor="middle" x="150.08" y="-179.31" font-family="IBM Plex Sans" font-size="14.00">cat foo.txt</text>
</g>
<!-- 1&#45;&gt;6 -->
<g id="edge6" class="edge">
<title>1&#45;&gt;6</title>
<path fill="none" stroke="dimgray" d="M106.78,-121.95C113.82,-131.69 122.72,-144 130.62,-154.93"/>
<polygon fill="none" stroke="dimgray" points="127.65,-156.79 136.34,-162.85 133.32,-152.7 127.65,-156.79"/>
</g>
<!-- 7 -->
<g id="node8" class="node">
<title>7</title>
<polygon fill="#d9d9d9" stroke="black" stroke-width="0" points="66.33,-275.91 9.83,-275.91 9.83,-239.91 66.33,-239.91 66.33,-275.91"/>
<text text-anchor="middle" x="38.08" y="-254.36" font-family="IBM Plex Sans" font-size="14.00">foo.txt</text>
</g>
<!-- 5&#45;&gt;7 -->
<g id="edge7" class="edge">
<title>5&#45;&gt;7</title>
<path fill="none" stroke="dimgray" d="M38.08,-203.82C38.08,-211.43 38.08,-220.25 38.08,-228.49"/>
<polygon fill="none" stroke="dimgray" points="34.58,-228.43 38.08,-238.43 41.58,-228.43 34.58,-228.43"/>
</g>
</g>
</svg>
