<?xml version="1.0" encoding="UTF-8" standalone="no"?>
<!DOCTYPE svg PUBLIC "-//W3C//DTD SVG 1.1//EN"
 "http://www.w3.org/Graphics/SVG/1.1/DTD/svg11.dtd">
<!-- Generated by graphviz version 14.1.4 (20260321.0153)
 -->
<!-- Pages: 1 -->
<svg width="318pt" height="307pt"
 viewBox="0.00 0.00 318.00 307.00" xmlns="http://www.w3.org/2000/svg" xmlns:xlink="http://www.w3.org/1999/xlink">
<g id="graph0" class="graph" transform="scale(1 1) rotate(0) translate(4 302.98)">
<!-- 2 -->
<g id="node1" class="node">
<title>2</title>
<polygon fill="#d9d9d9" stroke="black" stroke-width="0" points="81.81,-78.81 19.31,-78.81 19.31,-42.81 81.81,-42.81 81.81,-78.81"/>
<text xml:space="preserve" text-anchor="middle" x="50.56" y="-57.26" font-family="IBM Plex Sans" font-size="14.00">plan.py</text>
</g>
<!-- 3 -->
<g id="node3" class="node">
<title>3</title>
<ellipse fill="#80b1d3" stroke="black" stroke-width="0" cx="50.56" cy="-177.07" rx="50.56" ry="19.45"/>
<text xml:space="preserve" text-anchor="middle" x="50.56" y="-173.52" font-family="IBM Plex Sans" font-size="14.00">./plan.py</text>
</g>
<!-- 2&#45;&gt;3 -->
<g id="edge1" class="edge">
<title>2&#45;&gt;3</title>
<path fill="none" stroke="dimgray" d="M50.56,-78.67C50.56,-96.4 50.56,-124.64 50.56,-146.16"/>
<polygon fill="dimgray" stroke="dimgray" points="47.06,-146.11 50.56,-156.11 54.06,-146.11 47.06,-146.11"/>
</g>
<!-- 5 -->
<g id="node2" class="node">
<title>5</title>
<polygon fill="#d9d9d9" stroke="black" stroke-width="0" points="238.06,-195.07 171.06,-195.07 171.06,-159.07 238.06,-159.07 238.06,-195.07"/>
<text xml:space="preserve" text-anchor="middle" x="204.56" y="-173.52" font-family="IBM Plex Sans" font-size="14.00">story.txt</text>
</g>
<!-- 6 -->
<g id="node5" class="node">
<title>6</title>
<ellipse fill="#80b1d3" stroke="black" stroke-width="0" cx="204.56" cy="-265.75" rx="62.23" ry="33.23"/>
<text xml:space="preserve" text-anchor="middle" x="204.56" y="-271.95" font-family="IBM Plex Sans" font-size="14.00">grep Coffee</text>
<text xml:space="preserve" text-anchor="middle" x="204.56" y="-252.45" font-family="IBM Plex Sans" font-size="14.00">story.txt</text>
</g>
<!-- 5&#45;&gt;6 -->
<g id="edge3" class="edge">
<title>5&#45;&gt;6</title>
<path fill="none" stroke="dimgray" d="M204.56,-194.78C204.56,-202.4 204.56,-211.82 204.56,-221.25"/>
<polygon fill="dimgray" stroke="dimgray" points="201.06,-221.13 204.56,-231.13 208.06,-221.13 201.06,-221.13"/>
</g>
<!-- 4 -->
<g id="node4" class="node">
<title>4</title>
<ellipse fill="#80b1d3" stroke="black" stroke-width="0" cx="204.56" cy="-60.81" rx="105.18" ry="60.81"/>
<text xml:space="preserve" text-anchor="middle" x="204.56" y="-86.51" font-family="IBM Plex Sans" font-size="14.00">echo Monday frown &gt;</text>
<text xml:space="preserve" text-anchor="middle" x="204.56" y="-67.01" font-family="IBM Plex Sans" font-size="14.00">story.txt; echo</text>
<text xml:space="preserve" text-anchor="middle" x="204.56" y="-47.51" font-family="IBM Plex Sans" font-size="14.00">Coffee smile &gt;&gt;</text>
<text xml:space="preserve" text-anchor="middle" x="204.56" y="-28.01" font-family="IBM Plex Sans" font-size="14.00">story.txt</text>
</g>
<!-- 4&#45;&gt;5 -->
<g id="edge2" class="edge">
<title>4&#45;&gt;5</title>
<path fill="none" stroke="dimgray" d="M204.56,-121.62C204.56,-130.8 204.56,-139.88 204.56,-147.93"/>
<polygon fill="dimgray" stroke="dimgray" points="201.06,-147.7 204.56,-157.7 208.06,-147.7 201.06,-147.7"/>
</g>
</g>
</svg>
