<?xml version="1.0" encoding="UTF-8" standalone="no"?>
<!DOCTYPE svg PUBLIC "-//W3C//DTD SVG 1.1//EN"
 "http://www.w3.org/Graphics/SVG/1.1/DTD/svg11.dtd">
<!-- Generated by graphviz version 14.1.4 (20260321.0153)
 -->
<!-- Pages: 1 -->
<svg width="360pt" height="357pt"
 viewBox="0.00 0.00 360.00 357.00" xmlns="http://www.w3.org/2000/svg" xmlns:xlink="http://www.w3.org/1999/xlink">
<g id="graph0" class="graph" transform="scale(1 1) rotate(0) translate(4 353.42)">
<!-- 2 -->
<g id="node1" class="node">
<title>2</title>
<polygon fill="#d9d9d9" stroke="black" stroke-width="0" points="129.43,-118.35 66.93,-118.35 66.93,-82.35 129.43,-82.35 129.43,-118.35"/>
<text xml:space="preserve" text-anchor="middle" x="98.18" y="-96.8" font-family="IBM Plex Sans" font-size="14.00">plan.py</text>
</g>
<!-- 5 -->
<g id="node2" class="node">
<title>5</title>
<polygon fill="#d9d9d9" stroke="black" stroke-width="0" points="138.68,-349.42 71.68,-349.42 71.68,-313.42 138.68,-313.42 138.68,-349.42"/>
<text xml:space="preserve" text-anchor="middle" x="105.18" y="-327.87" font-family="IBM Plex Sans" font-size="14.00">story.txt</text>
</g>
<!-- 1 -->
<g id="node3" class="node">
<title>1</title>
<polygon fill="#fdb462" stroke="black" stroke-width="0" points="182.07,-22.45 165.12,-44.91 131.24,-44.91 114.3,-22.45 131.24,0 165.12,0 182.07,-22.45"/>
<text xml:space="preserve" text-anchor="middle" x="148.18" y="-18.9" font-family="IBM Plex Sans" font-size="14.00">root</text>
</g>
<!-- 1&#45;&gt;2 -->
<g id="edge2" class="edge">
<title>1&#45;&gt;2</title>
<path fill="none" stroke="dimgray" d="M134.25,-44.6C128.48,-53.36 121.72,-63.62 115.63,-72.87"/>
<polygon fill="none" stroke="dimgray" points="112.76,-70.86 110.18,-81.14 118.61,-74.71 112.76,-70.86"/>
</g>
<!-- 1&#45;&gt;1 -->
<g id="edge1" class="edge">
<title>1&#45;&gt;1</title>
<path fill="none" stroke="dimgray" d="M171.66,-8.88C186.22,-5.6 200.07,-10.13 200.07,-22.45 200.07,-31.5 192.6,-36.35 182.86,-36.99"/>
<polygon fill="none" stroke="dimgray" points="183.43,-33.52 173.17,-36.16 182.83,-40.5 183.43,-33.52"/>
</g>
<!-- 3 -->
<g id="node4" class="node">
<title>3</title>
<ellipse fill="#80b1d3" stroke="black" stroke-width="0" cx="198.18" cy="-100.35" rx="50.56" ry="19.45"/>
<text xml:space="preserve" text-anchor="middle" x="198.18" y="-96.8" font-family="IBM Plex Sans" font-size="14.00">./plan.py</text>
</g>
<!-- 1&#45;&gt;3 -->
<g id="edge3" class="edge">
<title>1&#45;&gt;3</title>
<path fill="none" stroke="dimgray" d="M162.11,-44.6C167.8,-53.23 174.44,-63.32 180.47,-72.46"/>
<polygon fill="none" stroke="dimgray" points="177.43,-74.22 185.86,-80.64 183.28,-70.37 177.43,-74.22"/>
</g>
<!-- 4 -->
<g id="node5" class="node">
<title>4</title>
<ellipse fill="#80b1d3" stroke="black" stroke-width="0" cx="105.18" cy="-216.61" rx="105.18" ry="60.81"/>
<text xml:space="preserve" text-anchor="middle" x="105.18" y="-242.31" font-family="IBM Plex Sans" font-size="14.00">echo Monday frown &gt;</text>
<text xml:space="preserve" text-anchor="middle" x="105.18" y="-222.81" font-family="IBM Plex Sans" font-size="14.00">story.txt; echo</text>
<text xml:space="preserve" text-anchor="middle" x="105.18" y="-203.31" font-family="IBM Plex Sans" font-size="14.00">Coffee smile &gt;&gt;</text>
<text xml:space="preserve" text-anchor="middle" x="105.18" y="-183.81" font-family="IBM Plex Sans" font-size="14.00">story.txt</text>
</g>
<!-- 3&#45;&gt;4 -->
<g id="edge4" class="edge">
<title>3&#45;&gt;4</title>
<path fill="none" stroke="dimgray" d="M184.06,-118.71C176.42,-128.09 166.47,-140.32 156.22,-152.91"/>
<polygon fill="none" stroke="dimgray" points="153.66,-150.51 150.06,-160.48 159.09,-154.93 153.66,-150.51"/>
</g>
<!-- 6 -->
<g id="node6" class="node">
<title>6</title>
<ellipse fill="#80b1d3" stroke="black" stroke-width="0" cx="290.18" cy="-216.61" rx="62.23" ry="33.23"/>
<text xml:space="preserve" text-anchor="middle" x="290.18" y="-222.81" font-family="IBM Plex Sans" font-size="14.00">grep Coffee</text>
<text xml:space="preserve" text-anchor="middle" x="290.18" y="-203.31" font-family="IBM Plex Sans" font-size="14.00">story.txt</text>
</g>
<!-- 3&#45;&gt;6 -->
<g id="edge5" class="edge">
<title>3&#45;&gt;6</title>
<path fill="none" stroke="dimgray" d="M212.15,-118.71C224.62,-134.19 243.32,-157.41 259.29,-177.24"/>
<polygon fill="none" stroke="dimgray" points="256.45,-179.3 265.45,-184.89 261.9,-174.91 256.45,-179.3"/>
</g>
<!-- 4&#45;&gt;5 -->
<g id="edge6" class="edge">
<title>4&#45;&gt;5</title>
<path fill="none" stroke="dimgray" d="M105.18,-277.32C105.18,-285.95 105.18,-294.49 105.18,-302.1"/>
<polygon fill="none" stroke="dimgray" points="101.68,-302.04 105.18,-312.04 108.68,-302.04 101.68,-302.04"/>
</g>
</g>
</svg>
