<?xml version="1.0" encoding="UTF-8" standalone="no"?>
<!DOCTYPE svg PUBLIC "-//W3C//DTD SVG 1.1//EN"
 "http://www.w3.org/Graphics/SVG/1.1/DTD/svg11.dtd">
<!-- Generated by graphviz version 14.1.4 (20260321.0153)
 -->
<!-- Pages: 1 -->
<svg width="354pt" height="330pt"
 viewBox="0.00 0.00 354.00 330.00" xmlns="http://www.w3.org/2000/svg" xmlns:xlink="http://www.w3.org/1999/xlink">
<g id="graph0" class="graph" transform="scale(1 1) rotate(0) translate(4 325.84)">
<!-- 2 -->
<g id="node1" class="node">
<title>2</title>
<polygon fill="#d9d9d9" stroke="black" stroke-width="0" points="123.72,-118.35 61.22,-118.35 61.22,-82.35 123.72,-82.35 123.72,-118.35"/>
<text xml:space="preserve" text-anchor="middle" x="92.47" y="-96.8" font-family="IBM Plex Sans" font-size="14.00">plan.py</text>
</g>
<!-- 5 -->
<g id="node2" class="node">
<title>5</title>
<polygon fill="#d9d9d9" stroke="black" stroke-width="0" points="134.97,-321.84 67.97,-321.84 67.97,-285.84 134.97,-285.84 134.97,-321.84"/>
<text xml:space="preserve" text-anchor="middle" x="101.47" y="-300.29" font-family="IBM Plex Sans" font-size="14.00">story.txt</text>
</g>
<!-- 1 -->
<g id="node3" class="node">
<title>1</title>
<polygon fill="#fdb462" stroke="black" stroke-width="0" points="176.35,-22.45 159.41,-44.91 125.53,-44.91 108.59,-22.45 125.53,0 159.41,0 176.35,-22.45"/>
<text xml:space="preserve" text-anchor="middle" x="142.47" y="-18.9" font-family="IBM Plex Sans" font-size="14.00">root</text>
</g>
<!-- 1&#45;&gt;2 -->
<g id="edge1" class="edge">
<title>1&#45;&gt;2</title>
<path fill="none" stroke="dimgray" d="M128.54,-44.6C122.77,-53.36 116.01,-63.62 109.91,-72.87"/>
<polygon fill="none" stroke="dimgray" points="107.05,-70.86 104.47,-81.14 112.89,-74.71 107.05,-70.86"/>
</g>
<!-- 1&#45;&gt;1 -->
<g id="edge2" class="edge">
<title>1&#45;&gt;1</title>
<path fill="none" stroke="dimgray" d="M165.95,-8.88C180.5,-5.6 194.35,-10.13 194.35,-22.45 194.35,-31.5 186.88,-36.35 177.15,-36.99"/>
<polygon fill="none" stroke="dimgray" points="177.72,-33.52 167.46,-36.16 177.12,-40.5 177.72,-33.52"/>
</g>
<!-- 3 -->
<g id="node4" class="node">
<title>3</title>
<ellipse fill="#80b1d3" stroke="black" stroke-width="0" cx="192.47" cy="-100.35" rx="50.56" ry="19.45"/>
<text xml:space="preserve" text-anchor="middle" x="192.47" y="-96.8" font-family="IBM Plex Sans" font-size="14.00">./plan.py</text>
</g>
<!-- 1&#45;&gt;3 -->
<g id="edge3" class="edge">
<title>1&#45;&gt;3</title>
<path fill="none" stroke="dimgray" d="M156.4,-44.6C162.08,-53.23 168.73,-63.32 174.76,-72.46"/>
<polygon fill="none" stroke="dimgray" points="171.72,-74.22 180.14,-80.64 177.57,-70.37 171.72,-74.22"/>
</g>
<!-- 4 -->
<g id="node5" class="node">
<title>4</title>
<ellipse fill="#80b1d3" stroke="black" stroke-width="0" cx="101.47" cy="-202.82" rx="101.47" ry="47.02"/>
<text xml:space="preserve" text-anchor="middle" x="101.47" y="-218.77" font-family="IBM Plex Sans" font-size="14.00">echo &quot;Monday frown</text>
<text xml:space="preserve" text-anchor="middle" x="101.47" y="-199.27" font-family="IBM Plex Sans" font-size="14.00">Coffee smile&quot; &gt;</text>
<text xml:space="preserve" text-anchor="middle" x="101.47" y="-179.77" font-family="IBM Plex Sans" font-size="14.00">story.txt</text>
</g>
<!-- 3&#45;&gt;4 -->
<g id="edge4" class="edge">
<title>3&#45;&gt;4</title>
<path fill="none" stroke="dimgray" d="M177.03,-118.4C168.71,-127.58 157.96,-139.45 147.19,-151.34"/>
<polygon fill="none" stroke="dimgray" points="144.9,-148.66 140.78,-158.42 150.09,-153.36 144.9,-148.66"/>
</g>
<!-- 6 -->
<g id="node6" class="node">
<title>6</title>
<ellipse fill="#80b1d3" stroke="black" stroke-width="0" cx="283.47" cy="-202.82" rx="62.23" ry="33.23"/>
<text xml:space="preserve" text-anchor="middle" x="283.47" y="-209.02" font-family="IBM Plex Sans" font-size="14.00">grep Coffee</text>
<text xml:space="preserve" text-anchor="middle" x="283.47" y="-189.52" font-family="IBM Plex Sans" font-size="14.00">story.txt</text>
</g>
<!-- 3&#45;&gt;6 -->
<g id="edge5" class="edge">
<title>3&#45;&gt;6</title>
<path fill="none" stroke="dimgray" d="M207.91,-118.4C219.39,-131.08 235.51,-148.87 249.9,-164.76"/>
<polygon fill="none" stroke="dimgray" points="246.92,-166.68 256.23,-171.74 252.11,-161.98 246.92,-166.68"/>
</g>
<!-- 4&#45;&gt;5 -->
<g id="edge6" class="edge">
<title>4&#45;&gt;5</title>
<path fill="none" stroke="dimgray" d="M101.47,-249.56C101.47,-258.08 101.47,-266.74 101.47,-274.54"/>
<polygon fill="none" stroke="dimgray" points="97.97,-274.42 101.47,-284.42 104.97,-274.42 97.97,-274.42"/>
</g>
</g>
</svg>
