<?xml version="1.0" encoding="UTF-8" standalone="no"?>
<!DOCTYPE svg PUBLIC "-//W3C//DTD SVG 1.1//EN"
 "http://www.w3.org/Graphics/SVG/1.1/DTD/svg11.dtd">
<!-- Generated by graphviz version 14.1.4 (20260321.0153)
 -->
<!-- Pages: 1 -->
<svg width="432pt" height="357pt"
 viewBox="0.00 0.00 432.00 357.00" xmlns="http://www.w3.org/2000/svg" xmlns:xlink="http://www.w3.org/1999/xlink">
<g id="graph0" class="graph" transform="scale(1 1) rotate(0) translate(4 353.42)">
<!-- 2 -->
<g id="node1" class="node">
<title>2</title>
<polygon fill="#d9d9d9" stroke="black" stroke-width="0" points="114.13,-118.35 51.63,-118.35 51.63,-82.35 114.13,-82.35 114.13,-118.35"/>
<text xml:space="preserve" text-anchor="middle" x="82.88" y="-96.8" font-family="IBM Plex Sans" font-size="14.00">plan.py</text>
</g>
<!-- 5 -->
<g id="node2" class="node">
<title>5</title>
<polygon fill="#d9d9d9" stroke="black" stroke-width="0" points="354.38,-349.42 287.38,-349.42 287.38,-313.42 354.38,-313.42 354.38,-349.42"/>
<text xml:space="preserve" text-anchor="middle" x="320.88" y="-327.87" font-family="IBM Plex Sans" font-size="14.00">story.txt</text>
</g>
<!-- 1 -->
<g id="node3" class="node">
<title>1</title>
<polygon fill="#fdb462" stroke="black" stroke-width="0" points="180.76,-22.45 163.82,-44.91 129.94,-44.91 112.99,-22.45 129.94,0 163.82,0 180.76,-22.45"/>
<text xml:space="preserve" text-anchor="middle" x="146.88" y="-18.9" font-family="IBM Plex Sans" font-size="14.00">root</text>
</g>
<!-- 1&#45;&gt;2 -->
<g id="edge2" class="edge">
<title>1&#45;&gt;2</title>
<path fill="none" stroke="dimgray" d="M129.73,-43.79C121.9,-53.07 112.56,-64.16 104.28,-73.97"/>
<polygon fill="none" stroke="dimgray" points="101.8,-71.49 98.03,-81.39 107.15,-76 101.8,-71.49"/>
</g>
<!-- 1&#45;&gt;1 -->
<g id="edge1" class="edge">
<title>1&#45;&gt;1</title>
<path fill="none" stroke="dimgray" d="M170.36,-8.88C184.91,-5.6 198.76,-10.13 198.76,-22.45 198.76,-31.5 191.29,-36.35 181.56,-36.99"/>
<polygon fill="none" stroke="dimgray" points="182.13,-33.52 171.87,-36.16 181.53,-40.5 182.13,-33.52"/>
</g>
<!-- 3 -->
<g id="node5" class="node">
<title>3</title>
<ellipse fill="#80b1d3" stroke="black" stroke-width="0" cx="210.88" cy="-100.35" rx="78.67" ry="19.45"/>
<text xml:space="preserve" text-anchor="middle" x="210.88" y="-96.8" font-family="IBM Plex Sans" font-size="14.00">runpy ./plan.py</text>
</g>
<!-- 1&#45;&gt;3 -->
<g id="edge3" class="edge">
<title>1&#45;&gt;3</title>
<path fill="none" stroke="dimgray" d="M164.03,-43.79C171.49,-52.64 180.34,-63.14 188.33,-72.61"/>
<polygon fill="none" stroke="dimgray" points="185.55,-74.74 194.67,-80.13 190.9,-70.23 185.55,-74.74"/>
</g>
<!-- 6 -->
<g id="node4" class="node">
<title>6</title>
<ellipse fill="#80b1d3" stroke="black" stroke-width="0" cx="99.88" cy="-216.61" rx="99.88" ry="33.23"/>
<text xml:space="preserve" text-anchor="middle" x="99.88" y="-222.81" font-family="IBM Plex Sans" font-size="14.00">runexec grep Coffee</text>
<text xml:space="preserve" text-anchor="middle" x="99.88" y="-203.31" font-family="IBM Plex Sans" font-size="14.00">story.txt</text>
</g>
<!-- 3&#45;&gt;6 -->
<g id="edge5" class="edge">
<title>3&#45;&gt;6</title>
<path fill="none" stroke="dimgray" d="M193.54,-119.21C178.6,-134.58 156.51,-157.32 137.54,-176.85"/>
<polygon fill="none" stroke="dimgray" points="135.14,-174.29 130.68,-183.91 140.16,-179.17 135.14,-174.29"/>
</g>
<!-- 4 -->
<g id="node6" class="node">
<title>4</title>
<ellipse fill="#80b1d3" stroke="black" stroke-width="0" cx="320.88" cy="-216.61" rx="103.06" ry="60.81"/>
<text xml:space="preserve" text-anchor="middle" x="320.88" y="-242.31" font-family="IBM Plex Sans" font-size="14.00">runsh echo Monday</text>
<text xml:space="preserve" text-anchor="middle" x="320.88" y="-222.81" font-family="IBM Plex Sans" font-size="14.00">frown &gt; story.txt;</text>
<text xml:space="preserve" text-anchor="middle" x="320.88" y="-203.31" font-family="IBM Plex Sans" font-size="14.00">echo Coffee smile &gt;&gt;</text>
<text xml:space="preserve" text-anchor="middle" x="320.88" y="-183.81" font-family="IBM Plex Sans" font-size="14.00">story.txt</text>
</g>
<!-- 3&#45;&gt;4 -->
<g id="edge4" class="edge">
<title>3&#45;&gt;4</title>
<path fill="none" stroke="dimgray" d="M228.07,-119.21C237.62,-129.13 250.13,-142.13 262.86,-155.35"/>
<polygon fill="none" stroke="dimgray" points="260.28,-157.71 269.74,-162.49 265.32,-152.86 260.28,-157.71"/>
</g>
<!-- 4&#45;&gt;5 -->
<g id="edge6" class="edge">
<title>4&#45;&gt;5</title>
<path fill="none" stroke="dimgray" d="M320.88,-277.32C320.88,-285.95 320.88,-294.49 320.88,-302.1"/>
<polygon fill="none" stroke="dimgray" points="317.38,-302.04 320.88,-312.04 324.38,-302.04 317.38,-302.04"/>
</g>
</g>
</svg>
