<?xml version="1.0" encoding="UTF-8" standalone="no"?>
<!DOCTYPE svg PUBLIC "-//W3C//DTD SVG 1.1//EN"
 "http://www.w3.org/Graphics/SVG/1.1/DTD/svg11.dtd">
<!-- Generated by graphviz version 12.2.1 (20241206.2353)
 -->
<!-- Pages: 1 -->
<svg width="341pt" height="307pt"
 viewBox="0.00 0.00 341.20 306.98" xmlns="http://www.w3.org/2000/svg" xmlns:xlink="http://www.w3.org/1999/xlink">
<g id="graph0" class="graph" transform="scale(1 1) rotate(0) translate(4 302.98)">
<!-- 3 -->
<g id="node1" class="node">
<title>3</title>
<polygon fill="#d9d9d9" stroke="black" stroke-width="0" points="109.92,-78.81 47.42,-78.81 47.42,-42.81 109.92,-42.81 109.92,-78.81"/>
<text text-anchor="middle" x="78.67" y="-57.26" font-family="IBM Plex Sans" font-size="14.00">plan.py</text>
</g>
<!-- 4 -->
<g id="node3" class="node">
<title>4</title>
<ellipse fill="#80b1d3" stroke="black" stroke-width="0" cx="78.67" cy="-177.07" rx="78.67" ry="19.45"/>
<text text-anchor="middle" x="78.67" y="-173.52" font-family="IBM Plex Sans" font-size="14.00">runpy ./plan.py</text>
</g>
<!-- 3&#45;&gt;4 -->
<g id="edge1" class="edge">
<title>3&#45;&gt;4</title>
<path fill="none" stroke="dimgray" d="M78.67,-78.67C78.67,-96.4 78.67,-124.64 78.67,-146.16"/>
<polygon fill="dimgray" stroke="dimgray" points="75.17,-146.11 78.67,-156.11 82.17,-146.11 75.17,-146.11"/>
</g>
<!-- 6 -->
<g id="node2" class="node">
<title>6</title>
<polygon fill="#d9d9d9" stroke="black" stroke-width="0" points="264.17,-195.07 197.17,-195.07 197.17,-159.07 264.17,-159.07 264.17,-195.07"/>
<text text-anchor="middle" x="230.67" y="-173.52" font-family="IBM Plex Sans" font-size="14.00">story.txt</text>
</g>
<!-- 7 -->
<g id="node5" class="node">
<title>7</title>
<ellipse fill="#80b1d3" stroke="black" stroke-width="0" cx="230.67" cy="-265.75" rx="81.85" ry="33.23"/>
<text text-anchor="middle" x="230.67" y="-271.95" font-family="IBM Plex Sans" font-size="14.00">runsh grep First</text>
<text text-anchor="middle" x="230.67" y="-252.45" font-family="IBM Plex Sans" font-size="14.00">story.txt</text>
</g>
<!-- 6&#45;&gt;7 -->
<g id="edge3" class="edge">
<title>6&#45;&gt;7</title>
<path fill="none" stroke="dimgray" d="M230.67,-194.78C230.67,-202.4 230.67,-211.82 230.67,-221.25"/>
<polygon fill="dimgray" stroke="dimgray" points="227.17,-221.13 230.67,-231.13 234.17,-221.13 227.17,-221.13"/>
</g>
<!-- 5 -->
<g id="node4" class="node">
<title>5</title>
<ellipse fill="#80b1d3" stroke="black" stroke-width="0" cx="230.67" cy="-60.81" rx="102.53" ry="60.81"/>
<text text-anchor="middle" x="230.67" y="-86.51" font-family="IBM Plex Sans" font-size="14.00">runsh echo First</text>
<text text-anchor="middle" x="230.67" y="-67.01" font-family="IBM Plex Sans" font-size="14.00">line. &gt; story.txt;</text>
<text text-anchor="middle" x="230.67" y="-47.51" font-family="IBM Plex Sans" font-size="14.00">echo Second line. &gt;&gt;</text>
<text text-anchor="middle" x="230.67" y="-28.01" font-family="IBM Plex Sans" font-size="14.00">story.txt</text>
</g>
<!-- 5&#45;&gt;6 -->
<g id="edge2" class="edge">
<title>5&#45;&gt;6</title>
<path fill="none" stroke="dimgray" d="M230.67,-121.62C230.67,-130.8 230.67,-139.88 230.67,-147.93"/>
<polygon fill="dimgray" stroke="dimgray" points="227.17,-147.7 230.67,-157.7 234.17,-147.7 227.17,-147.7"/>
</g>
</g>
</svg>
