<?xml version="1.0" encoding="UTF-8" standalone="no"?>
<!DOCTYPE svg PUBLIC "-//W3C//DTD SVG 1.1//EN"
 "http://www.w3.org/Graphics/SVG/1.1/DTD/svg11.dtd">
<!-- Generated by graphviz version 12.2.1 (20241206.2353)
 -->
<!-- Pages: 1 -->
<svg width="422pt" height="357pt"
 viewBox="0.00 0.00 421.85 357.42" xmlns="http://www.w3.org/2000/svg" xmlns:xlink="http://www.w3.org/1999/xlink">
<g id="graph0" class="graph" transform="scale(1 1) rotate(0) translate(4 353.42)">
<!-- 2 -->
<g id="node1" class="node">
<title>2</title>
<polygon fill="#d9d9d9" stroke="black" stroke-width="0" points="54,-118.35 0,-118.35 0,-82.35 54,-82.35 54,-118.35"/>
<text text-anchor="middle" x="27" y="-96.8" font-family="IBM Plex Sans" font-size="14.00">./</text>
</g>
<!-- 3 -->
<g id="node2" class="node">
<title>3</title>
<polygon fill="#d9d9d9" stroke="black" stroke-width="0" points="134.25,-118.35 71.75,-118.35 71.75,-82.35 134.25,-82.35 134.25,-118.35"/>
<text text-anchor="middle" x="103" y="-96.8" font-family="IBM Plex Sans" font-size="14.00">plan.py</text>
</g>
<!-- 6 -->
<g id="node3" class="node">
<title>6</title>
<polygon fill="#d9d9d9" stroke="black" stroke-width="0" points="163.5,-349.42 96.5,-349.42 96.5,-313.42 163.5,-313.42 163.5,-349.42"/>
<text text-anchor="middle" x="130" y="-327.87" font-family="IBM Plex Sans" font-size="14.00">story.txt</text>
</g>
<!-- 1 -->
<g id="node4" class="node">
<title>1</title>
<polygon fill="#fdb462" stroke="black" stroke-width="0" points="136.88,-22.45 119.94,-44.91 86.06,-44.91 69.12,-22.45 86.06,0 119.94,0 136.88,-22.45"/>
<text text-anchor="middle" x="103" y="-18.9" font-family="IBM Plex Sans" font-size="14.00">root</text>
</g>
<!-- 1&#45;&gt;2 -->
<g id="edge2" class="edge">
<title>1&#45;&gt;2</title>
<path fill="none" stroke="dimgray" d="M84.21,-42.22C74.5,-51.91 62.52,-63.88 52.03,-74.35"/>
<polygon fill="none" stroke="dimgray" points="49.69,-71.75 45.09,-81.29 54.63,-76.7 49.69,-71.75"/>
</g>
<!-- 1&#45;&gt;3 -->
<g id="edge3" class="edge">
<title>1&#45;&gt;3</title>
<path fill="none" stroke="dimgray" d="M103,-44.6C103,-52.8 103,-62.31 103,-71.09"/>
<polygon fill="none" stroke="dimgray" points="99.5,-70.89 103,-80.89 106.5,-70.89 99.5,-70.89"/>
</g>
<!-- 1&#45;&gt;1 -->
<g id="edge1" class="edge">
<title>1&#45;&gt;1</title>
<path fill="none" stroke="dimgray" d="M126.48,-8.88C141.03,-5.6 154.88,-10.13 154.88,-22.45 154.88,-31.5 147.41,-36.35 137.68,-36.99"/>
<polygon fill="none" stroke="dimgray" points="138.25,-33.52 127.99,-36.16 137.65,-40.5 138.25,-33.52"/>
</g>
<!-- 4 -->
<g id="node5" class="node">
<title>4</title>
<ellipse fill="#80b1d3" stroke="black" stroke-width="0" cx="231" cy="-100.35" rx="78.67" ry="19.45"/>
<text text-anchor="middle" x="231" y="-96.8" font-family="IBM Plex Sans" font-size="14.00">runpy ./plan.py</text>
</g>
<!-- 1&#45;&gt;4 -->
<g id="edge4" class="edge">
<title>1&#45;&gt;4</title>
<path fill="none" stroke="dimgray" d="M125.88,-37.02C144.47,-48.04 171.07,-63.82 192.86,-76.74"/>
<polygon fill="none" stroke="dimgray" points="190.8,-79.59 201.19,-81.68 194.37,-73.56 190.8,-79.59"/>
</g>
<!-- 5 -->
<g id="node6" class="node">
<title>5</title>
<ellipse fill="#80b1d3" stroke="black" stroke-width="0" cx="130" cy="-216.61" rx="102.53" ry="60.81"/>
<text text-anchor="middle" x="130" y="-242.31" font-family="IBM Plex Sans" font-size="14.00">runsh echo First</text>
<text text-anchor="middle" x="130" y="-222.81" font-family="IBM Plex Sans" font-size="14.00">line. &gt; story.txt;</text>
<text text-anchor="middle" x="130" y="-203.31" font-family="IBM Plex Sans" font-size="14.00">echo Second line. &gt;&gt;</text>
<text text-anchor="middle" x="130" y="-183.81" font-family="IBM Plex Sans" font-size="14.00">story.txt</text>
</g>
<!-- 4&#45;&gt;5 -->
<g id="edge5" class="edge">
<title>4&#45;&gt;5</title>
<path fill="none" stroke="dimgray" d="M215.22,-119.21C206.71,-128.83 195.65,-141.35 184.33,-154.15"/>
<polygon fill="none" stroke="dimgray" points="181.88,-151.63 177.88,-161.44 187.13,-156.27 181.88,-151.63"/>
</g>
<!-- 7 -->
<g id="node7" class="node">
<title>7</title>
<ellipse fill="#80b1d3" stroke="black" stroke-width="0" cx="332" cy="-216.61" rx="81.85" ry="33.23"/>
<text text-anchor="middle" x="332" y="-222.81" font-family="IBM Plex Sans" font-size="14.00">runsh grep First</text>
<text text-anchor="middle" x="332" y="-203.31" font-family="IBM Plex Sans" font-size="14.00">story.txt</text>
</g>
<!-- 4&#45;&gt;7 -->
<g id="edge6" class="edge">
<title>4&#45;&gt;7</title>
<path fill="none" stroke="dimgray" d="M246.78,-119.21C260.41,-134.62 280.58,-157.44 297.87,-177"/>
<polygon fill="none" stroke="dimgray" points="295.08,-179.13 304.33,-184.31 300.33,-174.5 295.08,-179.13"/>
</g>
<!-- 5&#45;&gt;6 -->
<g id="edge7" class="edge">
<title>5&#45;&gt;6</title>
<path fill="none" stroke="dimgray" d="M130,-277.32C130,-285.95 130,-294.49 130,-302.1"/>
<polygon fill="none" stroke="dimgray" points="126.5,-302.04 130,-312.04 133.5,-302.04 126.5,-302.04"/>
</g>
</g>
</svg>
