<?xml version="1.0" encoding="UTF-8" standalone="no"?>
<!DOCTYPE svg PUBLIC "-//W3C//DTD SVG 1.1//EN"
 "http://www.w3.org/Graphics/SVG/1.1/DTD/svg11.dtd">
<!-- Generated by graphviz version 9.0.0 (20230911.1827)
 -->
<!-- Pages: 1 -->
<svg width="525pt" height="363pt"
 viewBox="0.00 0.00 524.92 363.44" xmlns="http://www.w3.org/2000/svg" xmlns:xlink="http://www.w3.org/1999/xlink">
<g id="graph0" class="graph" transform="scale(1 1) rotate(0) translate(4 359.44)">
<!-- 0 -->
<g id="node1" class="node">
<title>0</title>
<polygon fill="#fdb462" stroke="black" stroke-width="0" points="187.88,-22.45 170.94,-44.91 137.06,-44.91 120.12,-22.45 137.06,0 170.94,0 187.88,-22.45"/>
<text text-anchor="middle" x="154" y="-18.9" font-family="IBM Plex Sans" font-size="14.00">root</text>
</g>
<!-- 1 -->
<g id="node2" class="node">
<title>1</title>
<polygon fill="#d9d9d9" stroke="black" stroke-width="0" points="54,-121.36 0,-121.36 0,-85.36 54,-85.36 54,-121.36"/>
<text text-anchor="middle" x="27" y="-99.81" font-family="IBM Plex Sans" font-size="14.00">./</text>
</g>
<!-- 0&#45;&gt;1 -->
<g id="edge1" class="edge">
<title>0&#45;&gt;1</title>
<path fill="none" stroke="dimgray" d="M131.59,-37.38C112.69,-49.12 85.29,-66.15 63.27,-79.82"/>
<polygon fill="none" stroke="dimgray" points="61.52,-76.79 54.87,-85.04 65.21,-82.74 61.52,-76.79"/>
</g>
<!-- 2 -->
<g id="node3" class="node">
<title>2</title>
<polygon fill="#d9d9d9" stroke="black" stroke-width="0" points="134.25,-121.36 71.75,-121.36 71.75,-85.36 134.25,-85.36 134.25,-121.36"/>
<text text-anchor="middle" x="103" y="-99.81" font-family="IBM Plex Sans" font-size="14.00">plan.py</text>
</g>
<!-- 0&#45;&gt;2 -->
<g id="edge2" class="edge">
<title>0&#45;&gt;2</title>
<path fill="none" stroke="dimgray" d="M140.33,-44.6C134.14,-54.19 126.74,-65.63 120.18,-75.79"/>
<polygon fill="none" stroke="dimgray" points="117.27,-73.83 114.78,-84.13 123.15,-77.63 117.27,-73.83"/>
</g>
<!-- 3 -->
<g id="node4" class="node">
<title>3</title>
<polygon fill="#fdb462" stroke="black" stroke-width="0" points="259.48,-103.36 232.74,-125.81 179.26,-125.81 152.52,-103.36 179.26,-80.91 232.74,-80.91 259.48,-103.36"/>
<text text-anchor="middle" x="206" y="-99.81" font-family="IBM Plex Sans" font-size="14.00">vacuum</text>
</g>
<!-- 0&#45;&gt;3 -->
<g id="edge3" class="edge">
<title>0&#45;&gt;3</title>
<path fill="none" stroke="dimgray" d="M167.94,-44.6C173.41,-52.91 179.81,-62.62 185.78,-71.68"/>
<polygon fill="none" stroke="dimgray" points="182.77,-73.47 191.19,-79.89 188.61,-69.62 182.77,-73.47"/>
</g>
<!-- 4 -->
<g id="node5" class="node">
<title>4</title>
<ellipse fill="#80b1d3" stroke="black" stroke-width="0" cx="328" cy="-103.36" rx="50.56" ry="19.45"/>
<text text-anchor="middle" x="328" y="-99.81" font-family="IBM Plex Sans" font-size="14.00">./plan.py</text>
</g>
<!-- 0&#45;&gt;4 -->
<g id="edge4" class="edge">
<title>0&#45;&gt;4</title>
<path fill="none" stroke="dimgray" d="M178.56,-34.59C206.54,-47.28 252.73,-68.23 286.36,-83.48"/>
<polygon fill="none" stroke="dimgray" points="284.87,-86.65 295.42,-87.59 287.76,-80.27 284.87,-86.65"/>
</g>
<!-- 5 -->
<g id="node6" class="node">
<title>5</title>
<ellipse fill="#80b1d3" stroke="black" stroke-width="0" cx="231" cy="-222.63" rx="83.97" ry="60.81"/>
<text text-anchor="middle" x="231" y="-248.33" font-family="IBM Plex Sans" font-size="14.00">echo First line. &gt;</text>
<text text-anchor="middle" x="231" y="-228.83" font-family="IBM Plex Sans" font-size="14.00">story.txt; echo</text>
<text text-anchor="middle" x="231" y="-209.33" font-family="IBM Plex Sans" font-size="14.00">Second line. &gt;&gt;</text>
<text text-anchor="middle" x="231" y="-189.83" font-family="IBM Plex Sans" font-size="14.00">story.txt</text>
</g>
<!-- 4&#45;&gt;5 -->
<g id="edge5" class="edge">
<title>4&#45;&gt;5</title>
<path fill="none" stroke="dimgray" d="M313.48,-121.92C304.55,-132.71 292.54,-147.22 280.46,-161.84"/>
<polygon fill="none" stroke="dimgray" points="277.99,-159.32 274.32,-169.26 283.39,-163.78 277.99,-159.32"/>
</g>
<!-- 6 -->
<g id="node7" class="node">
<title>6</title>
<ellipse fill="#80b1d3" stroke="black" stroke-width="0" cx="425" cy="-222.63" rx="91.92" ry="19.45"/>
<text text-anchor="middle" x="425" y="-219.08" font-family="IBM Plex Sans" font-size="14.00">grep First story.txt</text>
</g>
<!-- 4&#45;&gt;6 -->
<g id="edge6" class="edge">
<title>4&#45;&gt;6</title>
<path fill="none" stroke="dimgray" d="M342.52,-121.92C358.5,-141.23 384.37,-172.51 402.87,-194.88"/>
<polygon fill="none" stroke="dimgray" points="400.02,-196.92 409.09,-202.4 405.42,-192.46 400.02,-196.92"/>
</g>
<!-- 7 -->
<g id="node8" class="node">
<title>7</title>
<polygon fill="#d9d9d9" stroke="black" stroke-width="0" points="264.5,-355.44 197.5,-355.44 197.5,-319.44 264.5,-319.44 264.5,-355.44"/>
<text text-anchor="middle" x="231" y="-333.89" font-family="IBM Plex Sans" font-size="14.00">story.txt</text>
</g>
<!-- 5&#45;&gt;7 -->
<g id="edge7" class="edge">
<title>5&#45;&gt;7</title>
<path fill="none" stroke="dimgray" d="M231,-283.33C231,-291.97 231,-300.5 231,-308.12"/>
<polygon fill="none" stroke="dimgray" points="227.5,-308.05 231,-318.05 234.5,-308.05 227.5,-308.05"/>
</g>
</g>
</svg>
