<?xml version="1.0" encoding="UTF-8" standalone="no"?>
<!DOCTYPE svg PUBLIC "-//W3C//DTD SVG 1.1//EN"
 "http://www.w3.org/Graphics/SVG/1.1/DTD/svg11.dtd">
<!-- Generated by graphviz version 14.1.4 (20260321.0153)
 -->
<!-- Pages: 1 -->
<svg width="340pt" height="330pt"
 viewBox="0.00 0.00 340.00 330.00" xmlns="http://www.w3.org/2000/svg" xmlns:xlink="http://www.w3.org/1999/xlink">
<g id="graph0" class="graph" transform="scale(1 1) rotate(0) translate(4 325.84)">
<!-- 2 -->
<g id="node1" class="node">
<title>2</title>
<polygon fill="#d9d9d9" stroke="black" stroke-width="0" points="81.48,-118.35 18.98,-118.35 18.98,-82.35 81.48,-82.35 81.48,-118.35"/>
<text xml:space="preserve" text-anchor="middle" x="50.23" y="-96.8" font-family="IBM Plex Sans" font-size="14.00">plan.py</text>
</g>
<!-- 5 -->
<g id="node2" class="node">
<title>5</title>
<polygon fill="#d9d9d9" stroke="black" stroke-width="0" points="270.73,-321.84 203.73,-321.84 203.73,-285.84 270.73,-285.84 270.73,-321.84"/>
<text xml:space="preserve" text-anchor="middle" x="237.23" y="-300.29" font-family="IBM Plex Sans" font-size="14.00">story.txt</text>
</g>
<!-- 1 -->
<g id="node3" class="node">
<title>1</title>
<polygon fill="#fdb462" stroke="black" stroke-width="0" points="134.11,-22.45 117.17,-44.91 83.28,-44.91 66.34,-22.45 83.28,0 117.17,0 134.11,-22.45"/>
<text xml:space="preserve" text-anchor="middle" x="100.23" y="-18.9" font-family="IBM Plex Sans" font-size="14.00">root</text>
</g>
<!-- 1&#45;&gt;2 -->
<g id="edge1" class="edge">
<title>1&#45;&gt;2</title>
<path fill="none" stroke="dimgray" d="M86.3,-44.6C80.53,-53.36 73.77,-63.62 67.67,-72.87"/>
<polygon fill="none" stroke="dimgray" points="64.8,-70.86 62.22,-81.14 70.65,-74.71 64.8,-70.86"/>
</g>
<!-- 1&#45;&gt;1 -->
<g id="edge2" class="edge">
<title>1&#45;&gt;1</title>
<path fill="none" stroke="dimgray" d="M123.7,-8.88C138.26,-5.6 152.11,-10.13 152.11,-22.45 152.11,-31.5 144.64,-36.35 134.91,-36.99"/>
<polygon fill="none" stroke="dimgray" points="135.47,-33.52 125.21,-36.16 134.88,-40.5 135.47,-33.52"/>
</g>
<!-- 3 -->
<g id="node4" class="node">
<title>3</title>
<ellipse fill="#80b1d3" stroke="black" stroke-width="0" cx="150.23" cy="-100.35" rx="50.56" ry="19.45"/>
<text xml:space="preserve" text-anchor="middle" x="150.23" y="-96.8" font-family="IBM Plex Sans" font-size="14.00">./plan.py</text>
</g>
<!-- 1&#45;&gt;3 -->
<g id="edge3" class="edge">
<title>1&#45;&gt;3</title>
<path fill="none" stroke="dimgray" d="M114.15,-44.6C119.84,-53.23 126.49,-63.32 132.51,-72.46"/>
<polygon fill="none" stroke="dimgray" points="129.48,-74.22 137.9,-80.64 135.32,-70.37 129.48,-74.22"/>
</g>
<!-- 6 -->
<g id="node5" class="node">
<title>6</title>
<ellipse fill="#80b1d3" stroke="black" stroke-width="0" cx="62.23" cy="-202.82" rx="62.23" ry="33.23"/>
<text xml:space="preserve" text-anchor="middle" x="62.23" y="-209.02" font-family="IBM Plex Sans" font-size="14.00">grep Coffee</text>
<text xml:space="preserve" text-anchor="middle" x="62.23" y="-189.52" font-family="IBM Plex Sans" font-size="14.00">story.txt</text>
</g>
<!-- 3&#45;&gt;6 -->
<g id="edge5" class="edge">
<title>3&#45;&gt;6</title>
<path fill="none" stroke="dimgray" d="M134.9,-118.85C123.93,-131.38 108.75,-148.71 95.1,-164.29"/>
<polygon fill="none" stroke="dimgray" points="92.66,-161.76 88.71,-171.59 97.93,-166.37 92.66,-161.76"/>
</g>
<!-- 4 -->
<g id="node6" class="node">
<title>4</title>
<ellipse fill="#80b1d3" stroke="black" stroke-width="0" cx="237.23" cy="-202.82" rx="94.58" ry="47.02"/>
<text xml:space="preserve" text-anchor="middle" x="237.23" y="-218.77" font-family="IBM Plex Sans" font-size="14.00">printf &quot;Monday</text>
<text xml:space="preserve" text-anchor="middle" x="237.23" y="-199.27" font-family="IBM Plex Sans" font-size="14.00">frown\nCoffee</text>
<text xml:space="preserve" text-anchor="middle" x="237.23" y="-179.77" font-family="IBM Plex Sans" font-size="14.00">smile\n&quot; &gt; story.txt</text>
</g>
<!-- 3&#45;&gt;4 -->
<g id="edge4" class="edge">
<title>3&#45;&gt;4</title>
<path fill="none" stroke="dimgray" d="M165.38,-118.85C173.29,-127.99 183.42,-139.69 193.56,-151.4"/>
<polygon fill="none" stroke="dimgray" points="190.74,-153.48 199.93,-158.75 196.03,-148.9 190.74,-153.48"/>
</g>
<!-- 4&#45;&gt;5 -->
<g id="edge6" class="edge">
<title>4&#45;&gt;5</title>
<path fill="none" stroke="dimgray" d="M237.23,-249.56C237.23,-258.08 237.23,-266.74 237.23,-274.54"/>
<polygon fill="none" stroke="dimgray" points="233.73,-274.42 237.23,-284.42 240.73,-274.42 233.73,-274.42"/>
</g>
</g>
</svg>
