<?xml version="1.0" encoding="UTF-8" standalone="no"?>
<!DOCTYPE svg PUBLIC "-//W3C//DTD SVG 1.1//EN"
 "http://www.w3.org/Graphics/SVG/1.1/DTD/svg11.dtd">
<!-- Generated by graphviz version 9.0.0 (20230911.1827)
 -->
<!-- Pages: 1 -->
<svg width="392pt" height="363pt"
 viewBox="0.00 0.00 391.97 363.44" xmlns="http://www.w3.org/2000/svg" xmlns:xlink="http://www.w3.org/1999/xlink">
<g id="graph0" class="graph" transform="scale(1 1) rotate(0) translate(4 359.44)">
<!-- 0 -->
<g id="node1" class="node">
<title>0</title>
<polygon fill="#fdb462" stroke="black" stroke-width="0" points="264.85,-22.45 247.91,-44.91 214.03,-44.91 197.08,-22.45 214.03,0 247.91,0 264.85,-22.45"/>
<text text-anchor="middle" x="230.97" y="-18.9" font-family="IBM Plex Sans" font-size="14.00">root</text>
</g>
<!-- 1 -->
<g id="node2" class="node">
<title>1</title>
<polygon fill="#fdb462" stroke="black" stroke-width="0" points="112.45,-103.36 85.71,-125.81 32.23,-125.81 5.49,-103.36 32.23,-80.91 85.71,-80.91 112.45,-103.36"/>
<text text-anchor="middle" x="58.97" y="-99.81" font-family="IBM Plex Sans" font-size="14.00">vacuum</text>
</g>
<!-- 0&#45;&gt;1 -->
<g id="edge1" class="edge">
<title>0&#45;&gt;1</title>
<path fill="none" stroke="dimgray" d="M206.69,-34.59C179.78,-46.94 135.84,-67.09 102.87,-82.22"/>
<polygon fill="none" stroke="dimgray" points="101.59,-78.96 93.96,-86.31 104.5,-85.32 101.59,-78.96"/>
</g>
<!-- 2 -->
<g id="node3" class="node">
<title>2</title>
<ellipse fill="#80b1d3" stroke="black" stroke-width="0" cx="180.97" cy="-103.36" rx="50.56" ry="19.45"/>
<text text-anchor="middle" x="180.97" y="-99.81" font-family="IBM Plex Sans" font-size="14.00">./plan.py</text>
</g>
<!-- 0&#45;&gt;2 -->
<g id="edge2" class="edge">
<title>0&#45;&gt;2</title>
<path fill="none" stroke="dimgray" d="M217.57,-44.6C211.63,-53.98 204.56,-65.14 198.22,-75.13"/>
<polygon fill="none" stroke="dimgray" points="195.41,-73.03 193.01,-83.35 201.32,-76.78 195.41,-73.03"/>
</g>
<!-- 3 -->
<g id="node4" class="node">
<title>3</title>
<polygon fill="#d9d9d9" stroke="black" stroke-width="0" points="312.22,-121.36 249.72,-121.36 249.72,-85.36 312.22,-85.36 312.22,-121.36"/>
<text text-anchor="middle" x="280.97" y="-99.81" font-family="IBM Plex Sans" font-size="14.00">plan.py</text>
</g>
<!-- 0&#45;&gt;3 -->
<g id="edge3" class="edge">
<title>0&#45;&gt;3</title>
<path fill="none" stroke="dimgray" d="M244.37,-44.6C250.44,-54.19 257.69,-65.63 264.13,-75.79"/>
<polygon fill="none" stroke="dimgray" points="261.1,-77.55 269.41,-84.12 267.02,-73.8 261.1,-77.55"/>
</g>
<!-- 4 -->
<g id="node5" class="node">
<title>4</title>
<polygon fill="#d9d9d9" stroke="black" stroke-width="0" points="383.97,-121.36 329.97,-121.36 329.97,-85.36 383.97,-85.36 383.97,-121.36"/>
<text text-anchor="middle" x="356.97" y="-99.81" font-family="IBM Plex Sans" font-size="14.00">./</text>
</g>
<!-- 0&#45;&gt;4 -->
<g id="edge4" class="edge">
<title>0&#45;&gt;4</title>
<path fill="none" stroke="dimgray" d="M253.21,-37.38C271.83,-49.04 298.78,-65.92 320.55,-79.56"/>
<polygon fill="none" stroke="dimgray" points="318.53,-82.42 328.86,-84.76 322.24,-76.48 318.53,-82.42"/>
</g>
<!-- 5 -->
<g id="node6" class="node">
<title>5</title>
<ellipse fill="#80b1d3" stroke="black" stroke-width="0" cx="83.97" cy="-222.63" rx="83.97" ry="60.81"/>
<text text-anchor="middle" x="83.97" y="-248.33" font-family="IBM Plex Sans" font-size="14.00">echo First line. &gt;</text>
<text text-anchor="middle" x="83.97" y="-228.83" font-family="IBM Plex Sans" font-size="14.00">story.txt; echo</text>
<text text-anchor="middle" x="83.97" y="-209.33" font-family="IBM Plex Sans" font-size="14.00">Second line. &gt;&gt;</text>
<text text-anchor="middle" x="83.97" y="-189.83" font-family="IBM Plex Sans" font-size="14.00">story.txt</text>
</g>
<!-- 2&#45;&gt;5 -->
<g id="edge5" class="edge">
<title>2&#45;&gt;5</title>
<path fill="none" stroke="dimgray" d="M166.45,-121.92C157.52,-132.71 145.51,-147.22 133.43,-161.84"/>
<polygon fill="none" stroke="dimgray" points="130.96,-159.32 127.29,-169.26 136.36,-163.78 130.96,-159.32"/>
</g>
<!-- 6 -->
<g id="node7" class="node">
<title>6</title>
<ellipse fill="#80b1d3" stroke="black" stroke-width="0" cx="277.97" cy="-222.63" rx="91.92" ry="19.45"/>
<text text-anchor="middle" x="277.97" y="-219.08" font-family="IBM Plex Sans" font-size="14.00">grep First story.txt</text>
</g>
<!-- 2&#45;&gt;6 -->
<g id="edge6" class="edge">
<title>2&#45;&gt;6</title>
<path fill="none" stroke="dimgray" d="M195.49,-121.92C211.47,-141.23 237.34,-172.51 255.84,-194.88"/>
<polygon fill="none" stroke="dimgray" points="252.99,-196.92 262.06,-202.4 258.39,-192.46 252.99,-196.92"/>
</g>
<!-- 7 -->
<g id="node8" class="node">
<title>7</title>
<polygon fill="#d9d9d9" stroke="black" stroke-width="0" points="117.47,-355.44 50.47,-355.44 50.47,-319.44 117.47,-319.44 117.47,-355.44"/>
<text text-anchor="middle" x="83.97" y="-333.89" font-family="IBM Plex Sans" font-size="14.00">story.txt</text>
</g>
<!-- 5&#45;&gt;7 -->
<g id="edge7" class="edge">
<title>5&#45;&gt;7</title>
<path fill="none" stroke="dimgray" d="M83.97,-283.33C83.97,-291.97 83.97,-300.5 83.97,-308.12"/>
<polygon fill="none" stroke="dimgray" points="80.47,-308.05 83.97,-318.05 87.47,-308.05 80.47,-308.05"/>
</g>
</g>
</svg>
