<?xml version="1.0" encoding="UTF-8" standalone="no"?>
<!DOCTYPE svg PUBLIC "-//W3C//DTD SVG 1.1//EN"
 "http://www.w3.org/Graphics/SVG/1.1/DTD/svg11.dtd">
<!-- Generated by graphviz version 14.1.4 (20260321.0153)
 -->
<!-- Pages: 1 -->
<svg width="311pt" height="279pt"
 viewBox="0.00 0.00 311.00 279.00" xmlns="http://www.w3.org/2000/svg" xmlns:xlink="http://www.w3.org/1999/xlink">
<g id="graph0" class="graph" transform="scale(1 1) rotate(0) translate(4 275.4)">
<!-- 2 -->
<g id="node1" class="node">
<title>2</title>
<polygon fill="#d9d9d9" stroke="black" stroke-width="0" points="81.81,-65.02 19.31,-65.02 19.31,-29.02 81.81,-29.02 81.81,-65.02"/>
<text xml:space="preserve" text-anchor="middle" x="50.56" y="-43.47" font-family="IBM Plex Sans" font-size="14.00">plan.py</text>
</g>
<!-- 3 -->
<g id="node3" class="node">
<title>3</title>
<ellipse fill="#80b1d3" stroke="black" stroke-width="0" cx="50.56" cy="-149.49" rx="50.56" ry="19.45"/>
<text xml:space="preserve" text-anchor="middle" x="50.56" y="-145.94" font-family="IBM Plex Sans" font-size="14.00">./plan.py</text>
</g>
<!-- 2&#45;&gt;3 -->
<g id="edge1" class="edge">
<title>2&#45;&gt;3</title>
<path fill="none" stroke="dimgray" d="M50.56,-64.61C50.56,-79.28 50.56,-101.04 50.56,-118.72"/>
<polygon fill="dimgray" stroke="dimgray" points="47.06,-118.66 50.56,-128.66 54.06,-118.66 47.06,-118.66"/>
</g>
<!-- 5 -->
<g id="node2" class="node">
<title>5</title>
<polygon fill="#d9d9d9" stroke="black" stroke-width="0" points="235.06,-167.49 168.06,-167.49 168.06,-131.49 235.06,-131.49 235.06,-167.49"/>
<text xml:space="preserve" text-anchor="middle" x="201.56" y="-145.94" font-family="IBM Plex Sans" font-size="14.00">story.txt</text>
</g>
<!-- 6 -->
<g id="node5" class="node">
<title>6</title>
<ellipse fill="#80b1d3" stroke="black" stroke-width="0" cx="201.56" cy="-238.17" rx="62.23" ry="33.23"/>
<text xml:space="preserve" text-anchor="middle" x="201.56" y="-244.37" font-family="IBM Plex Sans" font-size="14.00">grep Coffee</text>
<text xml:space="preserve" text-anchor="middle" x="201.56" y="-224.87" font-family="IBM Plex Sans" font-size="14.00">story.txt</text>
</g>
<!-- 5&#45;&gt;6 -->
<g id="edge3" class="edge">
<title>5&#45;&gt;6</title>
<path fill="none" stroke="dimgray" d="M201.56,-167.2C201.56,-174.83 201.56,-184.25 201.56,-193.68"/>
<polygon fill="dimgray" stroke="dimgray" points="198.06,-193.55 201.56,-203.55 205.06,-193.55 198.06,-193.55"/>
</g>
<!-- 4 -->
<g id="node4" class="node">
<title>4</title>
<ellipse fill="#80b1d3" stroke="black" stroke-width="0" cx="201.56" cy="-47.02" rx="101.47" ry="47.02"/>
<text xml:space="preserve" text-anchor="middle" x="201.56" y="-62.97" font-family="IBM Plex Sans" font-size="14.00">echo &quot;Monday frown</text>
<text xml:space="preserve" text-anchor="middle" x="201.56" y="-43.47" font-family="IBM Plex Sans" font-size="14.00">Coffee smile&quot; &gt;</text>
<text xml:space="preserve" text-anchor="middle" x="201.56" y="-23.97" font-family="IBM Plex Sans" font-size="14.00">story.txt</text>
</g>
<!-- 4&#45;&gt;5 -->
<g id="edge2" class="edge">
<title>4&#45;&gt;5</title>
<path fill="none" stroke="dimgray" d="M201.56,-93.85C201.56,-102.89 201.56,-112.12 201.56,-120.36"/>
<polygon fill="dimgray" stroke="dimgray" points="198.06,-120.07 201.56,-130.07 205.06,-120.07 198.06,-120.07"/>
</g>
</g>
</svg>
