<svg xmlns="http://www.w3.org/2000/svg" xmlns:xlink="http://www.w3.org/1999/xlink" viewBox="0 0 26 26"><path d="M9.5 0C7.5 0 6 1.6 6 3.5v3.4c0 .6-.3 1.1-.8 1.3A3.7 3.7 0 0 0 3 11.5v3.4c0 .6-.3 1.1-.7 1.3A3.6 3.6 0 0 0 0 19.5v3c0 2 1.6 3.5 3.5 3.5h19c2 0 3.5-1.6 3.5-3.5v-3c0-2-1.6-3.5-3.5-3.5-.8 0-1.5-.7-1.5-1.5v-3c0-2-1.6-3.5-3.5-3.5-.8 0-1.5-.7-1.5-1.5v-3c0-2-1.6-3.5-3.5-3.5Z"/><path id="a" fill="#fff" d="M12.5 8h-3C8.7 8 8 7.3 8 6.5v-3C8 2.7 8.7 2 9.5 2h3c.8 0 1.5.7 1.5 1.5v3c0 .8-.7 1.5-1.5 1.5Z"/><use xlink:href="#a" transform="translate(10 16)"/><use xlink:href="#a" transform="translate(2 16)"/><use xlink:href="#a" transform="translate(-6 16)"/><use xlink:href="#a" transform="translate(-3 8)"/><use xlink:href="#a" transform="translate(5 8)"/></svg>
