<?xml version="1.0" encoding="UTF-8" standalone="no"?>
<svg
   width="1200"
   height="630"
   version="1.1"
   id="svg137"
   sodipodi:docname="social-card.svg"
   inkscape:version="1.4.4 (dcaf3e7d9e, 2026-05-05)"
   inkscape:export-filename="social-card.jpg"
   inkscape:export-xdpi="96"
   inkscape:export-ydpi="96"
   xmlns:inkscape="http://www.inkscape.org/namespaces/inkscape"
   xmlns:sodipodi="http://sodipodi.sourceforge.net/DTD/sodipodi-0.dtd"
   xmlns:xlink="http://www.w3.org/1999/xlink"
   xmlns="http://www.w3.org/2000/svg"
   xmlns:svg="http://www.w3.org/2000/svg">
  <sodipodi:namedview
     id="namedview137"
     pagecolor="#ffffff"
     bordercolor="#000000"
     borderopacity="0.25"
     inkscape:showpageshadow="2"
     inkscape:pageopacity="0.0"
     inkscape:pagecheckerboard="0"
     inkscape:deskcolor="#d1d1d1"
     inkscape:zoom="0.90015816"
     inkscape:cx="546.01516"
     inkscape:cy="421.03712"
     inkscape:window-width="2752"
     inkscape:window-height="1075"
     inkscape:window-x="0"
     inkscape:window-y="0"
     inkscape:window-maximized="1"
     inkscape:current-layer="svg137" />
  <defs
     id="defs6">
    <linearGradient
       id="b">
      <stop
         offset="0"
         style="stop-color:#0b0e19;stop-opacity:1"
         id="stop1" />
      <stop
         offset="1"
         style="stop-color:#0b0b0d;stop-opacity:1"
         id="stop2" />
    </linearGradient>
    <linearGradient
       id="c">
      <stop
         offset="0"
         style="stop-color:#000;stop-opacity:0"
         id="stop3" />
      <stop
         offset="1"
         style="stop-color:#000;stop-opacity:.29520309"
         id="stop4" />
    </linearGradient>
    <linearGradient
       id="a">
      <stop
         offset="0"
         style="stop-color:#24263c;stop-opacity:.70735121"
         id="stop5" />
      <stop
         offset="1"
         style="stop-color:#0f121f;stop-opacity:.24762632"
         id="stop6" />
    </linearGradient>
    <linearGradient
       xlink:href="#a"
       id="f"
       x1="0"
       x2="60"
       y1="30"
       y2="30"
       gradientUnits="userSpaceOnUse" />
    <radialGradient
       xlink:href="#b"
       id="d"
       cx="96.457"
       cy="10.643"
       r="600"
       fx="96.457"
       fy="10.643"
       gradientTransform="matrix(1 0 0 .76066 0 147.117)"
       gradientUnits="userSpaceOnUse" />
    <radialGradient
       xlink:href="#c"
       id="h"
       cx="96.457"
       cy="10.643"
       r="600"
       fx="96.457"
       fy="10.643"
       gradientTransform="matrix(1 0 0 .76066 0 147.117)"
       gradientUnits="userSpaceOnUse" />
    <filter
       id="g"
       width="1.15"
       height="1.15"
       x="-0.075"
       y="-0.075"
       style="color-interpolation-filters:sRGB">
      <feGaussianBlur
         stdDeviation="1.875"
         id="feGaussianBlur6" />
    </filter>
  </defs>
  <path
     d="M0 0h1200v630H0z"
     style="fill:url(#d);stroke:none;stroke-width:1.88976;stroke-linecap:round;stroke-linejoin:round;stroke-miterlimit:10"
     id="path6" />
  <g
     transform="translate(-42.794 5)"
     id="g131">
    <use
       xlink:href="#e"
       transform="translate(80)"
       id="use6" />
    <use
       xlink:href="#e"
       transform="translate(50 80)"
       id="use7" />
    <use
       xlink:href="#e"
       transform="translate(20 160)"
       id="use8" />
    <use
       xlink:href="#e"
       transform="translate(-10 240)"
       id="use9" />
    <use
       xlink:href="#e"
       transform="translate(160)"
       id="use10" />
    <use
       xlink:href="#e"
       transform="translate(130 80)"
       id="use11" />
    <use
       xlink:href="#e"
       transform="translate(100 160)"
       id="use12" />
    <use
       xlink:href="#e"
       transform="translate(70 240)"
       id="use13" />
    <use
       xlink:href="#e"
       transform="translate(40 320)"
       id="use14" />
    <use
       xlink:href="#e"
       transform="translate(10 399.999)"
       id="use15" />
    <use
       xlink:href="#e"
       transform="translate(240)"
       id="use16" />
    <use
       xlink:href="#e"
       transform="translate(210 80)"
       id="use17" />
    <use
       xlink:href="#e"
       transform="translate(180 160)"
       id="use18" />
    <use
       xlink:href="#e"
       transform="translate(150 240)"
       id="use19" />
    <use
       xlink:href="#e"
       transform="translate(120 320)"
       id="use20" />
    <use
       xlink:href="#e"
       transform="translate(90 399.999)"
       id="use21" />
    <use
       xlink:href="#e"
       transform="translate(60 479.999)"
       id="use22" />
    <use
       xlink:href="#e"
       transform="translate(30 559.999)"
       id="use23" />
    <use
       xlink:href="#e"
       transform="translate(320)"
       id="use24" />
    <use
       xlink:href="#e"
       transform="translate(290 80)"
       id="use25" />
    <use
       xlink:href="#e"
       transform="translate(260 160)"
       id="use26" />
    <use
       xlink:href="#e"
       transform="translate(230 240)"
       id="use27" />
    <use
       xlink:href="#e"
       transform="translate(200 320)"
       id="use28" />
    <use
       xlink:href="#e"
       transform="translate(170 399.999)"
       id="use29" />
    <use
       xlink:href="#e"
       transform="translate(140 479.999)"
       id="use30" />
    <use
       xlink:href="#e"
       transform="translate(110 559.999)"
       id="use31" />
    <use
       xlink:href="#e"
       transform="translate(400)"
       id="use32" />
    <use
       xlink:href="#e"
       transform="translate(370 80)"
       id="use33" />
    <use
       xlink:href="#e"
       transform="translate(340 160)"
       id="use34" />
    <use
       xlink:href="#e"
       transform="translate(310 240)"
       id="use35" />
    <use
       xlink:href="#e"
       transform="translate(280 320)"
       id="use36" />
    <use
       xlink:href="#e"
       transform="translate(249.999 399.999)"
       id="use37" />
    <use
       xlink:href="#e"
       transform="translate(219.999 479.999)"
       id="use38" />
    <use
       xlink:href="#e"
       transform="translate(189.999 559.999)"
       id="use39" />
    <use
       xlink:href="#e"
       transform="translate(479.999)"
       id="use40" />
    <use
       xlink:href="#e"
       transform="translate(449.999 80)"
       id="use41" />
    <use
       xlink:href="#e"
       transform="translate(419.999 160)"
       id="use42" />
    <use
       xlink:href="#e"
       transform="translate(389.999 240)"
       id="use43" />
    <use
       xlink:href="#e"
       transform="translate(359.999 320)"
       id="use44" />
    <use
       xlink:href="#e"
       transform="translate(329.999 399.999)"
       id="use45" />
    <use
       xlink:href="#e"
       transform="translate(299.999 479.999)"
       id="use46" />
    <use
       xlink:href="#e"
       transform="translate(269.999 559.999)"
       id="use47" />
    <use
       xlink:href="#e"
       transform="translate(559.999)"
       id="use48" />
    <use
       xlink:href="#e"
       transform="translate(529.999 80)"
       id="use49" />
    <use
       xlink:href="#e"
       transform="translate(499.999 160)"
       id="use50" />
    <use
       xlink:href="#e"
       transform="translate(469.999 240)"
       id="use51" />
    <use
       xlink:href="#e"
       transform="translate(439.999 320)"
       id="use52" />
    <use
       xlink:href="#e"
       transform="translate(409.999 399.999)"
       id="use53" />
    <use
       xlink:href="#e"
       transform="translate(379.999 479.999)"
       id="use54" />
    <use
       xlink:href="#e"
       transform="translate(349.999 559.999)"
       id="use55" />
    <use
       xlink:href="#e"
       transform="translate(639.999)"
       id="use56" />
    <use
       xlink:href="#e"
       transform="translate(609.999 80)"
       id="use57" />
    <use
       xlink:href="#e"
       transform="translate(579.999 160)"
       id="use58" />
    <use
       xlink:href="#e"
       transform="translate(549.998 240)"
       id="use59" />
    <use
       xlink:href="#e"
       transform="translate(519.998 320)"
       id="use60" />
    <use
       xlink:href="#e"
       transform="translate(489.998 399.999)"
       id="use61" />
    <use
       xlink:href="#e"
       transform="translate(459.998 479.999)"
       id="use62" />
    <use
       xlink:href="#e"
       transform="translate(429.998 559.999)"
       id="use63" />
    <use
       xlink:href="#e"
       transform="translate(719.998)"
       id="use64" />
    <use
       xlink:href="#e"
       transform="translate(689.998 80)"
       id="use65" />
    <use
       xlink:href="#e"
       transform="translate(659.998 160)"
       id="use66" />
    <use
       xlink:href="#e"
       transform="translate(629.998 240)"
       id="use67" />
    <use
       xlink:href="#e"
       transform="translate(599.998 320)"
       id="use68" />
    <use
       xlink:href="#e"
       transform="translate(569.998 399.999)"
       id="use69" />
    <use
       xlink:href="#e"
       transform="translate(539.998 479.999)"
       id="use70" />
    <use
       xlink:href="#e"
       transform="translate(509.998 559.999)"
       id="use71" />
    <use
       xlink:href="#e"
       transform="translate(799.998)"
       id="use72" />
    <use
       xlink:href="#e"
       transform="translate(769.998 80)"
       id="use73" />
    <use
       xlink:href="#e"
       transform="translate(739.998 160)"
       id="use74" />
    <use
       xlink:href="#e"
       transform="translate(709.998 240)"
       id="use75" />
    <use
       xlink:href="#e"
       transform="translate(679.998 320)"
       id="use76" />
    <use
       xlink:href="#e"
       transform="translate(649.998 399.999)"
       id="use77" />
    <use
       xlink:href="#e"
       transform="translate(619.998 479.999)"
       id="use78" />
    <use
       xlink:href="#e"
       transform="translate(589.998 559.999)"
       id="use79" />
    <use
       xlink:href="#e"
       transform="translate(879.998)"
       id="use80" />
    <use
       xlink:href="#e"
       transform="translate(849.998 80)"
       id="use81" />
    <use
       xlink:href="#e"
       transform="translate(819.998 160)"
       id="use82" />
    <use
       xlink:href="#e"
       transform="translate(789.998 240)"
       id="use83" />
    <use
       xlink:href="#e"
       transform="translate(759.998 320)"
       id="use84" />
    <use
       xlink:href="#e"
       transform="translate(729.998 399.999)"
       id="use85" />
    <use
       xlink:href="#e"
       transform="translate(699.998 479.999)"
       id="use86" />
    <use
       xlink:href="#e"
       transform="translate(669.998 559.999)"
       id="use87" />
    <use
       xlink:href="#e"
       transform="translate(959.998)"
       id="use88" />
    <use
       xlink:href="#e"
       transform="translate(929.998 80)"
       id="use89" />
    <use
       xlink:href="#e"
       transform="translate(899.998 160)"
       id="use90" />
    <use
       xlink:href="#e"
       transform="translate(869.998 240)"
       id="use91" />
    <use
       xlink:href="#e"
       transform="translate(839.998 320)"
       id="use92" />
    <use
       xlink:href="#e"
       transform="translate(809.998 399.999)"
       id="use93" />
    <use
       xlink:href="#e"
       transform="translate(779.998 479.999)"
       id="use94" />
    <use
       xlink:href="#e"
       transform="translate(749.998 559.999)"
       id="use95" />
    <use
       xlink:href="#e"
       transform="translate(1039.998)"
       id="use96" />
    <use
       xlink:href="#e"
       transform="translate(1009.998 80)"
       id="use97" />
    <use
       xlink:href="#e"
       transform="translate(979.998 160)"
       id="use98" />
    <use
       xlink:href="#e"
       transform="translate(949.998 240)"
       id="use99" />
    <use
       xlink:href="#e"
       transform="translate(919.998 320)"
       id="use100" />
    <use
       xlink:href="#e"
       transform="translate(889.998 399.999)"
       id="use101" />
    <use
       xlink:href="#e"
       transform="translate(859.998 479.999)"
       id="use102" />
    <use
       xlink:href="#e"
       transform="translate(829.998 559.999)"
       id="use103" />
    <use
       xlink:href="#e"
       transform="translate(1119.997)"
       id="use104" />
    <use
       xlink:href="#e"
       transform="translate(1089.997 80)"
       id="use105" />
    <use
       xlink:href="#e"
       transform="translate(1059.997 160)"
       id="use106" />
    <use
       xlink:href="#e"
       transform="translate(1029.997 240)"
       id="use107" />
    <use
       xlink:href="#e"
       transform="translate(999.997 320)"
       id="use108" />
    <use
       xlink:href="#e"
       transform="translate(969.997 399.999)"
       id="use109" />
    <use
       xlink:href="#e"
       transform="translate(939.997 479.999)"
       id="use110" />
    <use
       xlink:href="#e"
       transform="translate(909.997 559.999)"
       id="use111" />
    <use
       xlink:href="#e"
       transform="translate(1199.997)"
       id="use112" />
    <use
       xlink:href="#e"
       transform="translate(1169.997 80)"
       id="use113" />
    <use
       xlink:href="#e"
       transform="translate(1139.997 160)"
       id="use114" />
    <use
       xlink:href="#e"
       transform="translate(1109.997 240)"
       id="use115" />
    <use
       xlink:href="#e"
       transform="translate(1079.997 320)"
       id="use116" />
    <use
       xlink:href="#e"
       transform="translate(1049.997 399.999)"
       id="use117" />
    <use
       xlink:href="#e"
       transform="translate(1019.997 479.999)"
       id="use118" />
    <use
       xlink:href="#e"
       transform="translate(989.997 559.999)"
       id="use119" />
    <use
       xlink:href="#e"
       transform="translate(1219.997 160)"
       id="use120" />
    <use
       xlink:href="#e"
       transform="translate(1189.997 240)"
       id="use121" />
    <use
       xlink:href="#e"
       transform="translate(1159.997 320)"
       id="use122" />
    <use
       xlink:href="#e"
       transform="translate(1129.997 399.999)"
       id="use123" />
    <use
       xlink:href="#e"
       transform="translate(1099.997 479.999)"
       id="use124" />
    <use
       xlink:href="#e"
       transform="translate(1069.997 559.999)"
       id="use125" />
    <use
       xlink:href="#e"
       transform="translate(1239.997 320)"
       id="use126" />
    <use
       xlink:href="#e"
       transform="translate(1209.997 399.999)"
       id="use127" />
    <use
       xlink:href="#e"
       transform="translate(1179.997 479.999)"
       id="use128" />
    <use
       xlink:href="#e"
       transform="translate(1149.997 559.999)"
       id="use129" />
    <use
       xlink:href="#e"
       style="fill:#1e1e1e;fill-opacity:1"
       id="use130" />
    <path
       id="e"
       fill="#fff"
       d="M45 60H15C7 60 0 53 0 45V15C0 7 7 0 15 0h30c8 0 15 7 15 15v30c0 8-7 15-15 15"
       style="mix-blend-mode:normal;fill:url(#f);fill-opacity:1;stroke-width:1;filter:url(#g)" />
    <use
       xlink:href="#e"
       transform="translate(1229.997 559.999)"
       id="use131" />
  </g>
  <path
     d="M0 0h1200v630H0z"
     style="display:inline;fill:url(#h);stroke:none;stroke-width:1.88976;stroke-linecap:round;stroke-linejoin:round;stroke-miterlimit:10"
     id="path131" />
  <path
     d="M172.206 305c-20 0-35 16-35 35v34c0 6-3 11-8 13a37 37 0 0 0-22 33v34c0 6-3 11-7 13a36 36 0 0 0-23 33v30c0 20 16 35 35 35h190c20 0 35-16 35-35v-30c0-20-16-35-35-35-8 0-15-7-15-15v-30c0-20-16-35-35-35-8 0-15-7-15-15v-30c0-20-16-35-35-35z"
     style="stroke-width:1;fill:#000;fill-opacity:1"
     id="path132" />
  <path
     fill="#fff"
     d="M202.206 385h-30c-8 0-15-7-15-15v-30c0-8 7-15 15-15h30c8 0 15 7 15 15v30c0 8-7 15-15 15"
     style="stroke-width:1;fill:#e5e5e5;fill-opacity:1"
     id="path133" />
  <path
     fill="#fff"
     d="M302.206 545h-30c-8 0-15-7-15-15v-30c0-8 7-15 15-15h30c8 0 15 7 15 15v30c0 8-7 15-15 15M222.206 545h-30c-8 0-15-7-15-15v-30c0-8 7-15 15-15h30c8 0 15 7 15 15v30c0 8-7 15-15 15M142.206 545h-30c-8 0-15-7-15-15v-30c0-8 7-15 15-15h30c8 0 15 7 15 15v30c0 8-7 15-15 15M172.206 465h-30c-8 0-15-7-15-15v-30c0-8 7-15 15-15h30c8 0 15 7 15 15v30c0 8-7 15-15 15M252.206 465h-30c-8 0-15-7-15-15v-30c0-8 7-15 15-15h30c8 0 15 7 15 15v30c0 8-7 15-15 15"
     style="fill:#e5e5e5;stroke-width:1;fill-opacity:1"
     id="path134" />
  <text
     x="96.185"
     y="232.834"
     fill="#c3c9d6"
     font-size="38"
     font-weight="400"
     style="font-style:normal;font-variant:normal;font-weight:normal;font-stretch:normal;font-size:40px;font-family:'IBM Plex Sans';-inkscape-font-specification:'IBM Plex Sans, Normal';font-variant-ligatures:normal;font-variant-caps:normal;font-variant-numeric:normal;font-variant-east-asian:normal;fill:#ffffff;fill-opacity:1"
     id="text134"><tspan
       x="96.185"
       y="232.834"
       id="tagline"
       style="-inkscape-font-specification:'IBM Plex Sans, Normal';font-family:'IBM Plex Sans';font-weight:normal;font-style:normal;font-stretch:normal;font-variant:normal;font-size:40px;font-variant-ligatures:normal;font-variant-caps:normal;font-variant-numeric:normal;font-variant-east-asian:normal">A dynamic Python build tool for reproducible workflows</tspan></text>
  <text
     xml:space="preserve"
     x="92.28"
     y="155.111"
     style="font-style:normal;font-variant:normal;font-weight:bold;font-stretch:normal;font-size:104px;line-height:1.5em;font-family:'IBM Plex Sans';-inkscape-font-specification:'IBM Plex Sans, Bold';font-variant-ligatures:normal;font-variant-caps:normal;font-variant-numeric:normal;font-variant-east-asian:normal;text-align:start;letter-spacing:0;word-spacing:1px;writing-mode:lr-tb;direction:ltr;text-anchor:start;fill:#ffffff;stroke:none;stroke-width:1.88976;stroke-linecap:round;stroke-linejoin:round;stroke-miterlimit:10"
     id="text135"><tspan
       x="92.28"
       y="155.111"
       id="tspan135"
       style="-inkscape-font-specification:'IBM Plex Sans, Bold';font-family:'IBM Plex Sans';font-weight:bold;font-style:normal;font-stretch:normal;font-variant:normal;font-size:104px;font-variant-ligatures:normal;font-variant-caps:normal;font-variant-numeric:normal;font-variant-east-asian:normal">StepUp</tspan></text>
  <text
     x="399.79523"
     y="524.39398"
     fill="#7d879c"
     font-size="28"
     font-weight="400"
     style="font-style:normal;font-variant:normal;font-weight:normal;font-stretch:normal;font-size:38px;font-family:'IBM Plex Sans';-inkscape-font-specification:'IBM Plex Sans, Normal';font-variant-ligatures:normal;font-variant-caps:normal;font-variant-numeric:normal;font-variant-east-asian:normal;text-align:start;text-anchor:start;fill:#ffffff;fill-opacity:1"
     text-anchor="end"
     id="text136">github.com/reproducible-reporting</text>
  <text
     xml:space="preserve"
     x="243.04718"
     y="364.479"
     style="font-style:normal;font-variant:normal;font-weight:600;font-stretch:normal;font-size:38px;line-height:1.5em;font-family:'Source Code Pro';-inkscape-font-specification:'Source Code Pro, Semi-Bold';font-variant-ligatures:normal;font-variant-caps:normal;font-variant-numeric:normal;font-variant-east-asian:normal;text-align:start;letter-spacing:0;word-spacing:1px;writing-mode:lr-tb;direction:ltr;text-anchor:start;fill:#ffffff;fill-opacity:1;stroke:none;stroke-width:1.88976;stroke-linecap:round;stroke-linejoin:round;stroke-miterlimit:10"
     id="text137"><tspan
       x="400.25909"
       y="364.479"
       style="font-style:normal;font-variant:normal;font-weight:600;font-stretch:normal;font-size:38px;font-family:'Source Code Pro';-inkscape-font-specification:'Source Code Pro, Semi-Bold';font-variant-ligatures:normal;font-variant-caps:normal;font-variant-numeric:normal;font-variant-east-asian:normal;fill:#ffffff;fill-opacity:1"
       id="tspan136">pip install stepup</tspan></text>
</svg>
