<?xml version="1.0" encoding="UTF-8" standalone="no"?>
<!DOCTYPE svg PUBLIC "-//W3C//DTD SVG 1.1//EN"
 "http://www.w3.org/Graphics/SVG/1.1/DTD/svg11.dtd">
<!-- Generated by graphviz version 12.1.0 (20240811.2233)
 -->
<!-- Pages: 1 -->
<svg width="400pt" height="357pt"
 viewBox="0.00 0.00 399.92 357.42" xmlns="http://www.w3.org/2000/svg" xmlns:xlink="http://www.w3.org/1999/xlink">
<g id="graph0" class="graph" transform="scale(1 1) rotate(0) translate(4 353.42)">
<!-- 3 -->
<g id="node1" class="node">
<title>3</title>
<polygon fill="#d9d9d9" stroke="black" stroke-width="0" points="54,-118.35 0,-118.35 0,-82.35 54,-82.35 54,-118.35"/>
<text text-anchor="middle" x="27" y="-96.8" font-family="IBM Plex Sans" font-size="14.00">./</text>
</g>
<!-- 2 -->
<g id="node2" class="node">
<title>2</title>
<polygon fill="#d9d9d9" stroke="black" stroke-width="0" points="134.25,-118.35 71.75,-118.35 71.75,-82.35 134.25,-82.35 134.25,-118.35"/>
<text text-anchor="middle" x="103" y="-96.8" font-family="IBM Plex Sans" font-size="14.00">plan.py</text>
</g>
<!-- 6 -->
<g id="node3" class="node">
<title>6</title>
<polygon fill="#d9d9d9" stroke="black" stroke-width="0" points="139.5,-349.42 72.5,-349.42 72.5,-313.42 139.5,-313.42 139.5,-349.42"/>
<text text-anchor="middle" x="106" y="-327.87" font-family="IBM Plex Sans" font-size="14.00">story.txt</text>
</g>
<!-- 1 -->
<g id="node4" class="node">
<title>1</title>
<polygon fill="#fdb462" stroke="black" stroke-width="0" points="136.88,-22.45 119.94,-44.91 86.06,-44.91 69.12,-22.45 86.06,0 119.94,0 136.88,-22.45"/>
<text text-anchor="middle" x="103" y="-18.9" font-family="IBM Plex Sans" font-size="14.00">root</text>
</g>
<!-- 1&#45;&gt;3 -->
<g id="edge3" class="edge">
<title>1&#45;&gt;3</title>
<path fill="none" stroke="dimgray" d="M84.21,-42.22C74.5,-51.91 62.52,-63.88 52.03,-74.35"/>
<polygon fill="none" stroke="dimgray" points="49.69,-71.75 45.09,-81.29 54.63,-76.7 49.69,-71.75"/>
</g>
<!-- 1&#45;&gt;2 -->
<g id="edge2" class="edge">
<title>1&#45;&gt;2</title>
<path fill="none" stroke="dimgray" d="M103,-44.6C103,-52.8 103,-62.31 103,-71.09"/>
<polygon fill="none" stroke="dimgray" points="99.5,-70.89 103,-80.89 106.5,-70.89 99.5,-70.89"/>
</g>
<!-- 1&#45;&gt;1 -->
<g id="edge1" class="edge">
<title>1&#45;&gt;1</title>
<path fill="none" stroke="dimgray" d="M126.48,-8.88C141.03,-5.6 154.88,-10.13 154.88,-22.45 154.88,-31.5 147.41,-36.35 137.68,-36.99"/>
<polygon fill="none" stroke="dimgray" points="138.25,-33.52 127.99,-36.16 137.65,-40.5 138.25,-33.52"/>
</g>
<!-- 4 -->
<g id="node5" class="node">
<title>4</title>
<ellipse fill="#80b1d3" stroke="black" stroke-width="0" cx="203" cy="-100.35" rx="50.56" ry="19.45"/>
<text text-anchor="middle" x="203" y="-96.8" font-family="IBM Plex Sans" font-size="14.00">./plan.py</text>
</g>
<!-- 1&#45;&gt;4 -->
<g id="edge4" class="edge">
<title>1&#45;&gt;4</title>
<path fill="none" stroke="dimgray" d="M123.72,-39.18C137.78,-49.85 156.61,-64.14 172.39,-76.12"/>
<polygon fill="none" stroke="dimgray" points="169.98,-78.69 180.06,-81.94 174.21,-73.11 169.98,-78.69"/>
</g>
<!-- 5 -->
<g id="node6" class="node">
<title>5</title>
<ellipse fill="#80b1d3" stroke="black" stroke-width="0" cx="106" cy="-216.61" rx="83.97" ry="60.81"/>
<text text-anchor="middle" x="106" y="-242.31" font-family="IBM Plex Sans" font-size="14.00">echo First line. &gt;</text>
<text text-anchor="middle" x="106" y="-222.81" font-family="IBM Plex Sans" font-size="14.00">story.txt; echo</text>
<text text-anchor="middle" x="106" y="-203.31" font-family="IBM Plex Sans" font-size="14.00">Second line. &gt;&gt;</text>
<text text-anchor="middle" x="106" y="-183.81" font-family="IBM Plex Sans" font-size="14.00">story.txt</text>
</g>
<!-- 4&#45;&gt;5 -->
<g id="edge5" class="edge">
<title>4&#45;&gt;5</title>
<path fill="none" stroke="dimgray" d="M188.27,-118.71C179.62,-128.89 168.13,-142.42 156.49,-156.14"/>
<polygon fill="none" stroke="dimgray" points="154.03,-153.63 150.23,-163.52 159.37,-158.16 154.03,-153.63"/>
</g>
<!-- 7 -->
<g id="node7" class="node">
<title>7</title>
<ellipse fill="#80b1d3" stroke="black" stroke-width="0" cx="300" cy="-216.61" rx="91.92" ry="19.45"/>
<text text-anchor="middle" x="300" y="-213.06" font-family="IBM Plex Sans" font-size="14.00">grep First story.txt</text>
</g>
<!-- 4&#45;&gt;7 -->
<g id="edge6" class="edge">
<title>4&#45;&gt;7</title>
<path fill="none" stroke="dimgray" d="M217.73,-118.71C233.59,-137.39 259.02,-167.33 277.41,-189"/>
<polygon fill="none" stroke="dimgray" points="274.69,-191.2 283.83,-196.56 280.03,-186.67 274.69,-191.2"/>
</g>
<!-- 5&#45;&gt;6 -->
<g id="edge7" class="edge">
<title>5&#45;&gt;6</title>
<path fill="none" stroke="dimgray" d="M106,-277.32C106,-285.95 106,-294.49 106,-302.1"/>
<polygon fill="none" stroke="dimgray" points="102.5,-302.04 106,-312.04 109.5,-302.04 102.5,-302.04"/>
</g>
</g>
</svg>
